<?xml version="1.0" encoding="utf-8"?>
<!-- Generator: Adobe Illustrator 16.0.0, SVG Export Plug-In . SVG Version: 6.00 Build 0)  -->
<!DOCTYPE svg PUBLIC "-//W3C//DTD SVG 1.1//EN" "http://www.w3.org/Graphics/SVG/1.1/DTD/svg11.dtd">
<svg version="1.1" id="Layer_1" xmlns="http://www.w3.org/2000/svg" xmlns:xlink="http://www.w3.org/1999/xlink" x="0px" y="0px"
	 width="1000px" height="1000px" viewBox="0 0 1000 1000" enable-background="new 0 0 1000 1000" xml:space="preserve">
<path fill="#020202" d="M849.034,405.471H594.81V151.246c0-35.195-28.522-63.71-63.492-63.71h-63.717
	c-34.977,0-63.492,28.516-63.492,63.71v254.225H149.909c-35.189,0-63.53,28.304-63.53,63.499v63.499
	c0,35.188,28.34,63.679,63.53,63.679h254.199v254.225c0,34.977,28.516,63.498,63.492,63.498h63.717
	c34.97,0,63.492-28.521,63.492-63.498V596.146h254.225c34.945,0,63.498-28.49,63.498-63.679v-63.499
	C912.532,433.774,883.979,405.471,849.034,405.471z"/>
</svg>
