<?xml version="1.0" encoding="utf-8"?>
<!-- Generator: Adobe Illustrator 16.0.0, SVG Export Plug-In . SVG Version: 6.00 Build 0)  -->
<!DOCTYPE svg PUBLIC "-//W3C//DTD SVG 1.1//EN" "http://www.w3.org/Graphics/SVG/1.1/DTD/svg11.dtd">
<svg version="1.1" id="Layer_1" xmlns="http://www.w3.org/2000/svg" xmlns:xlink="http://www.w3.org/1999/xlink" x="0px" y="0px"
	 width="1000px" height="1000px" viewBox="0 0 1000 1000" enable-background="new 0 0 1000 1000" xml:space="preserve">
<path fill-rule="evenodd" clip-rule="evenodd" fill="#050000" d="M876.59,933.666H129.309c-31.735,0-57.418-25.65-57.418-57.364
	V128.967c0-31.768,25.683-57.418,57.418-57.418H876.59c31.735,0,57.418,25.65,57.418,57.418v747.335
	C934.008,908.016,908.325,933.666,876.59,933.666L876.59,933.666z M761.981,473.649c0-31.768-25.683-57.484-57.418-57.484H589.162
	V302.957c0-31.756-25.684-57.418-57.418-57.418h-57.589c-31.769,0-57.418,25.662-57.418,57.418v113.208h-115
	c-31.746,0-57.418,25.716-57.418,57.484v57.753c0,31.769,25.672,57.418,57.418,57.418h115v116.41
	c0,31.714,25.649,57.58,57.418,57.58h57.589c31.734,0,57.418-25.866,57.418-57.58V588.82h115.401
	c31.735,0,57.418-25.649,57.418-57.418V473.649L761.981,473.649z"/>
</svg>
