<?xml version="1.0" encoding="utf-8"?>
<!-- Generator: Adobe Illustrator 16.0.0, SVG Export Plug-In . SVG Version: 6.00 Build 0)  -->
<!DOCTYPE svg PUBLIC "-//W3C//DTD SVG 1.1//EN" "http://www.w3.org/Graphics/SVG/1.1/DTD/svg11.dtd">
<svg version="1.1" id="Layer_1" xmlns="http://www.w3.org/2000/svg" xmlns:xlink="http://www.w3.org/1999/xlink" x="0px" y="0px"
	 width="1000px" height="1000px" viewBox="0 0 1000 1000" enable-background="new 0 0 1000 1000" xml:space="preserve">
<path fill-rule="evenodd" clip-rule="evenodd" fill="#050000" d="M848.309,906.686H615.762c-32.088,0-58.043-26.167-58.043-58.254
	V616.058c0-32.087,25.955-58.029,58.043-58.029h232.547c32.125,0,58.057,25.942,58.057,58.029v232.374
	C906.365,880.519,880.434,906.686,848.309,906.686L848.309,906.686z M790.688,674.113H674.589v116.263h116.099V674.113
	L790.688,674.113z M848.309,441.729H615.762c-32.088,0-58.043-25.932-58.043-58.02V151.132c0-32.087,25.955-58.05,58.043-58.05
	h232.547c32.125,0,58.057,25.962,58.057,58.05V383.71C906.365,415.797,880.434,441.729,848.309,441.729L848.309,441.729z
	 M383.985,906.686H151.613c-32.093,0-58.224-26.167-58.224-58.254V616.058c0-32.087,26.13-58.029,58.224-58.029h232.373
	c32.089,0,58.05,25.942,58.05,58.029v232.374C442.035,880.519,416.074,906.686,383.985,906.686L383.985,906.686z M383.985,441.729
	H151.613c-32.093,0-58.224-25.932-58.224-58.02V151.132c0-32.087,26.13-58.05,58.224-58.05h232.373
	c32.089,0,58.05,25.962,58.05,58.05V383.71C442.035,415.797,416.074,441.729,383.985,441.729L383.985,441.729z"/>
</svg>
