<?xml version="1.0" encoding="utf-8"?>
<!-- Generator: Adobe Illustrator 16.0.0, SVG Export Plug-In . SVG Version: 6.00 Build 0)  -->
<!DOCTYPE svg PUBLIC "-//W3C//DTD SVG 1.1//EN" "http://www.w3.org/Graphics/SVG/1.1/DTD/svg11.dtd">
<svg version="1.1" id="Layer_1" xmlns="http://www.w3.org/2000/svg" xmlns:xlink="http://www.w3.org/1999/xlink" x="0px" y="0px"
	 width="1000px" height="1000px" viewBox="0 0 1000 1000" enable-background="new 0 0 1000 1000" xml:space="preserve">
<g>
	<path fill="#050303" d="M199.586,360.973l260.724,215.41c23.946,19.927,63.015,19.927,86.969,0l260.73-215.41
		c23.939-19.749,23.939-51.947,0-71.874H686.76v-65.032c0-33.821-27.369-61.403-61.393-61.403H378.922
		c-33.968,0-61.338,27.582-61.338,61.403v65.032H199.586C175.578,309.026,175.578,341.225,199.586,360.973z"/>
	<path fill="#050303" d="M930.63,703.983V532.084h-54.985v121.105c-1.798-0.158-3.608-0.281-5.461-0.281H132.542
		c-3.443,0-6.798,0.356-10.083,0.904V532.084H67.301v243.623h3.841v0.178c0,33.859,27.548,61.407,61.4,61.407h737.642
		c33.859,0,61.406-27.548,61.406-61.407v-61.393C931.59,710.898,931.22,707.399,930.63,703.983z"/>
</g>
</svg>
