<?xml version="1.0" encoding="utf-8"?>
<!-- Generator: Adobe Illustrator 16.0.0, SVG Export Plug-In . SVG Version: 6.00 Build 0)  -->
<!DOCTYPE svg PUBLIC "-//W3C//DTD SVG 1.1//EN" "http://www.w3.org/Graphics/SVG/1.1/DTD/svg11.dtd">
<svg version="1.1" id="Layer_1" xmlns="http://www.w3.org/2000/svg" xmlns:xlink="http://www.w3.org/1999/xlink" x="0px" y="0px"
	 width="1000px" height="1000px" viewBox="0 0 1000 1000" enable-background="new 0 0 1000 1000" xml:space="preserve">
<path fill="#050303" d="M830.846,800.257H176.247c-30.151,0-54.602-24.45-54.602-54.603v-54.539
	c0-30.152,24.451-54.603,54.602-54.603h654.599c30.099,0,54.437,24.45,54.437,54.603v54.539
	C885.282,775.807,860.944,800.257,830.846,800.257L830.846,800.257z M775.71,377.528L544.271,568.706
	c-21.312,17.623-55.884,17.623-77.188,0L235.688,377.528c-21.355-17.634-21.355-46.236,0-63.87H775.71
	C797.023,331.292,797.023,359.894,775.71,377.528L775.71,377.528z M613.678,375.827H394.85c-30.09,0-54.542-24.461-54.542-54.603
	v-65.254c0-30.151,24.452-54.602,54.542-54.602h218.828c30.088,0,54.385,24.451,54.385,54.602v65.254
	C668.062,351.366,643.766,375.827,613.678,375.827L613.678,375.827z M118.395,745.554V529.339h48.738v216.215H118.395
	L118.395,745.554z M835.694,745.554V529.339h48.9v216.215H835.694L835.694,745.554z"/>
</svg>
