<?xml version="1.0" encoding="utf-8"?>
<!-- Generator: Adobe Illustrator 16.0.0, SVG Export Plug-In . SVG Version: 6.00 Build 0)  -->
<!DOCTYPE svg PUBLIC "-//W3C//DTD SVG 1.1//EN" "http://www.w3.org/Graphics/SVG/1.1/DTD/svg11.dtd">
<svg version="1.1" id="Layer_1" xmlns="http://www.w3.org/2000/svg" xmlns:xlink="http://www.w3.org/1999/xlink" x="0px" y="0px"
	 width="1000px" height="1000px" viewBox="0 0 1000 1000" enable-background="new 0 0 1000 1000" xml:space="preserve">
<path fill="#020101" d="M836.753,360.867H167.198c-30.839,0-55.848-25.011-55.848-55.849v-55.85c0-30.828,25.009-55.68,55.848-55.68
	h669.555c30.776,0,55.682,24.852,55.682,55.68v55.85C892.435,335.856,867.529,360.867,836.753,360.867L836.753,360.867z
	 M780.358,691.03H227.997c-21.842-18.026-21.842-47.229,0-65.161l236.68-195.7c21.801-17.869,57.159-17.869,78.949,0l236.732,195.7
	C802.148,643.801,802.148,673.004,780.358,691.03L780.358,691.03z M614.565,805.884H390.803c-30.839,0-55.796-25.009-55.796-55.839
	v-66.742c0-30.787,24.957-55.798,55.796-55.798h223.762c30.839,0,55.68,25.011,55.68,55.798v66.742
	C670.245,780.875,645.404,805.884,614.565,805.884L614.565,805.884z M108.026,470.487V249.336h49.86v221.151H108.026
	L108.026,470.487z M841.704,470.487V249.336h50.018v221.151H841.704L841.704,470.487z"/>
</svg>
