<?xml version="1.0" encoding="utf-8"?>
<!-- Generator: Adobe Illustrator 16.0.0, SVG Export Plug-In . SVG Version: 6.00 Build 0)  -->
<!DOCTYPE svg PUBLIC "-//W3C//DTD SVG 1.1//EN" "http://www.w3.org/Graphics/SVG/1.1/DTD/svg11.dtd">
<svg version="1.1" id="Layer_1" xmlns="http://www.w3.org/2000/svg" xmlns:xlink="http://www.w3.org/1999/xlink" x="0px" y="0px"
	 width="1000px" height="1000px" viewBox="0 0 1000 1000" enable-background="new 0 0 1000 1000" xml:space="preserve">
<g>
	<path fill="#070606" d="M811.229,641.235L547.76,423.549c-24.202-20.138-63.691-20.138-87.893,0L196.391,641.235
		c-24.202,20.166-24.202,52.489,0,72.662H315.39v65.69c0,34.208,27.906,62.043,62.297,62.043h249.043
		c34.15,0,62.05-27.835,62.05-62.043v-65.69h122.449C835.43,693.725,835.43,661.401,811.229,641.235z"/>
	<path fill="#070606" d="M936.175,221.933c0-34.175-27.899-62.046-62.05-62.046H128.647c-34.151,0-62.05,27.871-62.05,62.046v0.184
		h-3.888v246.192h55.742V345.331c3.323,0.557,6.718,0.917,10.196,0.917h745.478c1.849,0,3.669-0.12,5.461-0.279v122.339h55.559
		v-173.16c0.649-3.563,1.03-7.211,1.03-10.95V221.933z"/>
</g>
</svg>
