<?xml version="1.0" encoding="utf-8"?>
<!-- Generator: Adobe Illustrator 16.0.0, SVG Export Plug-In . SVG Version: 6.00 Build 0)  -->
<!DOCTYPE svg PUBLIC "-//W3C//DTD SVG 1.1//EN" "http://www.w3.org/Graphics/SVG/1.1/DTD/svg11.dtd">
<svg version="1.1" id="Layer_1" xmlns="http://www.w3.org/2000/svg" xmlns:xlink="http://www.w3.org/1999/xlink" x="0px" y="0px"
	 width="1000px" height="1000px" viewBox="0 0 1000 1000" enable-background="new 0 0 1000 1000" xml:space="preserve">
<path fill="#040000" d="M906.416,716.116c-15.168,15.168-39.715,15.168-55.017,0L466.611,331.194
	c-15.168-15.168-15.168-39.715,0-54.883c15.208-15.167,39.857-15.167,55.026,0l384.779,384.791
	C921.624,676.299,921.624,700.949,906.416,716.116L906.416,716.116z M521.637,331.194L136.805,716.116
	c-15.167,15.168-39.816,15.168-54.985,0c-15.167-15.167-15.167-39.817,0-55.015l384.791-384.791
	c15.208-15.167,39.857-15.167,55.026,0C536.805,291.479,536.805,316.025,521.637,331.194L521.637,331.194z"/>
</svg>
