<?xml version="1.0" encoding="utf-8"?>
<!-- Generator: Adobe Illustrator 16.0.0, SVG Export Plug-In . SVG Version: 6.00 Build 0)  -->
<!DOCTYPE svg PUBLIC "-//W3C//DTD SVG 1.1//EN" "http://www.w3.org/Graphics/SVG/1.1/DTD/svg11.dtd">
<svg version="1.1" id="Layer_1" xmlns="http://www.w3.org/2000/svg" xmlns:xlink="http://www.w3.org/1999/xlink" x="0px" y="0px"
	 width="1000px" height="1000px" viewBox="0 0 1000 1000" enable-background="new 0 0 1000 1000" xml:space="preserve">
<path fill="#0B0506" d="M814.846,184.361C741.389,107.116,635.923,70.217,506.018,70.217c-121.397,0-228.125,37.466-312.602,119.4
	C108.733,271.582,70.383,375.956,70.383,495.361c0,126.112,40.893,228.497,122.852,307.551
	c81.755,79.24,185.249,118.709,310.069,118.709c29.671,0,59.88-1.297,90.276-3.814c30.575-2.723,60.612-7.228,90.275-13.73v-87.587
	c-28.212,7.781-58.062,7.986-89.729,11.588c-31.488,3.601-61.698,5.41-90.275,5.41c-106.559,0-179.289-20.625-245.133-87.009
	c-66.028-66.595-97.692-129.896-97.692-237.359c0-99.865,39.801-183.46,107.821-253.656
	c67.841-70.172,133.344-95.513,237.717-95.513c109.997,0,178.017,26.402,236.812,91.365c58.797,64.939,88.109,142,88.109,248.396
	c0,29.845-21.351,63.307-27.137,100.042c-5.778,36.729-22.23,47.038-35.629,70.18l-66.952-0.52V269.406h-95.694v23.502
	c-18.639-9.747-37.266-17.725-55.562-23.502c-18.449-5.806-40.313-8.683-65.657-8.683c-54.623,0-103.289,21.143-145.811,63.874
	c-42.522,42.679-63.874,102.202-63.874,178.717c0,76.371,17.357,134.799,51.926,174.966c34.569,40.159,79.062,60.247,133.344,60.247
	c34.364,0,61.312-5.445,81.392-16.299c19.9-10.864,41.617-25.687,65.325-44.136l13.218,56.62h222.869
	c24.953-35.296,44.153-73.799,57.737-115.962c13.364-42.155,20.054-85.948,20.054-131.164
	C921.036,364.008,888.132,261.631,814.846,184.361L814.846,184.361z M544.914,630.519c-20.984,9.413-42.334,14.096-63.685,14.096
	c-40.322,0-69.633-13.73-87.92-41.412c-18.451-27.699-19.722-43.786-19.722-95.899c0-57.704,4.353-85.561,28.758-113.052
	c24.26-27.495,56.465-41.28,96.265-41.28c18.09,0,35.269,2.022,51.902,6.165c16.485,3.968,34.747,10.68,54.468,20.268v214.395
	C585.984,608.8,565.906,621.114,544.914,630.519L544.914,630.519z"/>
</svg>
