<?xml version="1.0" encoding="utf-8"?>
<!-- Generator: Adobe Illustrator 14.0.0, SVG Export Plug-In . SVG Version: 6.00 Build 43363)  -->
<!DOCTYPE svg PUBLIC "-//W3C//DTD SVG 1.1//EN" "http://www.w3.org/Graphics/SVG/1.1/DTD/svg11.dtd">
<svg version="1.1" id="图层_1" xmlns="http://www.w3.org/2000/svg" xmlns:xlink="http://www.w3.org/1999/xlink" x="0px" y="0px"
   width="1000px" height="1000px" viewBox="0 0 1000 1000" enable-background="new 0 0 1000 1000" xml:space="preserve">
<g>
	<path fill-rule="evenodd" clip-rule="evenodd" fill="#020101" d="M664.251,219.802c0,0,56.256,132.987,153.407-5.111
		c0,0,0-127.801-143.181-173.858C674.478,40.833,740.954,168.707,664.251,219.802z"/>
	<path fill-rule="evenodd" clip-rule="evenodd" fill="#020101" d="M405.389,219.802c0,0,56.256,132.987,153.505-5.111
		c0,0,0-127.801-143.184-173.858C415.711,40.833,482.093,168.707,405.389,219.802z"/>
	<path fill-rule="evenodd" clip-rule="evenodd" fill="#020101" d="M155.666,219.802c0,0,56.256,132.987,153.508-5.111
		c0,0,0-127.801-143.186-173.858C165.987,40.833,232.47,168.707,155.666,219.802z"/>
	<path fill-rule="evenodd" clip-rule="evenodd" fill="#020101" d="M785.604,424.874V305.324H679.164v107.401H530.002V305.324
		H427.764v107.401H306.903c-10.47,0-20.511,0.414-30.18,1.177V305.324H174.187v135.99C99.981,479.882,70.958,551.129,70.958,615.058
		v176.721c0,91.275,52.603,131.484,83.867,147.486c38.673,19.56,81.002,21.235,117.552,21.235l17.287-0.095l17.239-0.101h387.325
		l33.59,0.195c0.15,0,0.793,0,0.938,0c36.596,0,78.877-1.676,117.6-21.235c31.217-16.002,83.819-56.211,83.819-147.486V615.058
		C930.175,540.386,890.568,455.769,785.604,424.874z M829.019,791.778c0,74.485-60.355,67.37-134.791,67.37H306.903
		c-74.433,0-134.791,7.115-134.791-67.37V615.058c0-74.531,60.358-101.151,134.791-101.151h387.325
		c74.436,0,134.791,26.62,134.791,101.151V791.778z"/>
</g>
</svg>
