<?xml version="1.0" encoding="utf-8"?>
<!-- Generator: Adobe Illustrator 16.0.0, SVG Export Plug-In . SVG Version: 6.00 Build 0)  -->
<!DOCTYPE svg PUBLIC "-//W3C//DTD SVG 1.1//EN" "http://www.w3.org/Graphics/SVG/1.1/DTD/svg11.dtd">
<svg version="1.1" id="Layer_1" xmlns="http://www.w3.org/2000/svg" xmlns:xlink="http://www.w3.org/1999/xlink" x="0px" y="0px"
	 width="1000px" height="1000px" viewBox="0 0 1000 1000" enable-background="new 0 0 1000 1000" xml:space="preserve">
<g>
	<path fill="#060202" d="M926.73,412.284c0-13.703-2.701-27.534-8.089-40.488c-12.951-31.271-40.097-54.477-73.199-62.383
		c0,0-19.634-4.668-45.985-10.929l22.989,22.983c9.887,9.889,15.45,23.183,15.45,37.22c0,14.037-5.563,27.327-15.45,37.219
		l-13.32,13.312l12.057,2.856L693.146,618.538l19.784,204.271L500.722,718.138l-1.355,0.67l-4.927,4.918
		c-10.072,10.256-23.29,15.252-36.559,15.419l-170.594,83.664l20.5-206.797l-0.318-0.484l-73.96-73.945
		c-10.253-10.256-15.456-23.748-15.456-37.244c0-6.858,1.313-13.701,3.957-20.134l-46.943-72.129l201.953-48.37l123.167-192.24
		l0.534,2.162l95.252,145.196c41.392-41.387,74.687-74.674,74.687-74.674c0.527-0.531,1.105-0.992,1.648-1.498
		c-31.169-47.555-72.621-110.698-78.427-119.557c-15.116-29.104-43.343-50.327-76.596-55.735c-5.772-0.9-11.328-1.443-17.099-1.443
		c-35.595,0-69.234,18.002-88.834,48.549c0,0-69.774,108.974-100.167,156.441c-52.309,12.597-160.743,38.506-160.743,38.506
		c-33.274,8.089-60.605,31.811-73.379,63.646c-5.048,12.588-7.546,25.882-7.546,39.016c0,20.145,5.743,40.13,17.074,57.565
		c0,0,83.63,128.194,112.583,172.798c-4.867,49.81-16.923,169.913-16.923,169.913c-0.359,3.456-0.543,7.036-0.543,10.458
		c0,34.332,16.923,66.892,45.333,86.666c17.978,12.416,39.021,18.698,60.245,18.698c15.814,0,31.651-3.396,46.382-10.608
		c0,0,110.059-53.933,166.876-81.798c56.819,28.024,165.614,81.647,165.614,81.647c14.756,7.362,30.751,10.941,46.771,10.941
		c21.04,0,42.055-6.282,59.882-18.67c28.77-19.81,45.668-52.545,45.668-87.053c0-3.431-0.185-6.676-0.545-10.073
		c0,0-11.695-120.13-16.354-168.683c27.329-44.062,109.338-176.22,109.338-176.22C921.343,450.737,926.73,431.675,926.73,412.284z"
		/>
	<polygon fill="#060202" points="348.042,427.017 270.723,504.338 380.058,613.669 382.307,611.419 457.196,686.481 
		785.202,358.687 707.879,281.339 455.038,534.179 	"/>
</g>
</svg>
