<?xml version="1.0" encoding="utf-8"?>
<!-- Generator: Adobe Illustrator 16.0.0, SVG Export Plug-In . SVG Version: 6.00 Build 0)  -->
<!DOCTYPE svg PUBLIC "-//W3C//DTD SVG 1.1//EN" "http://www.w3.org/Graphics/SVG/1.1/DTD/svg11.dtd">
<svg version="1.1" id="Layer_1" xmlns="http://www.w3.org/2000/svg" xmlns:xlink="http://www.w3.org/1999/xlink" x="0px" y="0px"
	 width="1000px" height="1000px" viewBox="0 0 1000 1000" enable-background="new 0 0 1000 1000" xml:space="preserve">
<g>
	<path fill-rule="evenodd" clip-rule="evenodd" fill="#050404" d="M384.939,855.041c7.848,2.532,15.798,4.734,23.811,6.734"/>
	<path fill-rule="evenodd" clip-rule="evenodd" fill="#050404" d="M924.271,500.438c0-234.47-190.052-424.528-424.521-424.528
		S75.229,265.968,75.229,500.438c0,46.906,7.722,91.994,21.785,134.197c2.114-4.379,18.532-8.278,22.405-11.443
		c6.292-5.139,0.76-8.328,5.494-8.328c5.95,0,11.215-0.051,14.317,3.771c1.861,2.279-10.013,5.975-10.013,11.912
		c0,4.519,10.215,21.76,6.05,25.557c-3.417,3.139-7.785-7.013-12.342-4.658c-6,3.113-12.342,5.43-17.304,6.684
		c27.292,68.152,71.747,127.558,128,172.925c3.025-1.05,6.304-1.886,9.76-2.468c3.456-0.57,7.114,12.076,10.912,12.076
		c29.633,0-2.114-15.975,17.101-10.785c5.342,1.443-2.937,16.48,0.772,19.038c5.696,3.924,35.051-4.013,35.051,1.468
		c0,2.633-13.772,5.152-15.241,7.494c-1.848,2.937-4.734,5.582-8.393,7.822c63.317,37.583,137.191,59.216,216.166,59.216
		c74.279,0,144.064-19.114,204.799-52.633c0.797-4.481,6.873-7.95,14.734-8.481C842.156,789.421,924.271,654.521,924.271,500.438z
		 M562.699,911.953c6.823-6.418-16.975-4.329-16.975-9.646c-25.443,6.456-5.455-15.14-29.949-9.646
		c-5.189,1.164,21.557-26.823,29.949-22.596c28.57,14.393,2.354,8.355,0.481,18.178c9.392,0,34.025,1.62,33.468,14.063
		C579.434,907.624,552.346,921.675,562.699,911.953z M593.738,889.864c-9.393,0-20.52-4.316-14.064-16.633
		c2.469-4.722,7.938-12.165,16.988-9.646c38.127,10.62,0.316,6.911,0.316,12.24C596.979,881.143,634.789,889.864,593.738,889.864z
		 M499.75,873.08c-31.102,0-61.583-3.912-91-11.305c0.215,0.607,0.646,1.165,0.646,1.811c0,3.582-3.203,7.886-8.557,8.367
		c-6.937,0.633-5.354-11.696-8.43-11.696c-9.367,0-7.469,16.114-16.975,3.329c-2.253-3.025,3.937-6.975,9.506-8.545
		c-5.494-1.784-10.937-3.67-16.342-5.695c-5.519,4.684-14.912-5.19-25.595-5.19c-5.266,0-10.215,0.481-14.544,0.886
		c-9.671,0.873-16.241-11.709-16.241-18.367c0-4.721,3.342,3.963,8.722,0.823c-30.734-16.86-59.267-38.114-84.735-63.57
		c-68.076-68.114-106.494-157.976-108.912-253.888c-6.899,1.229-15.874-2.202-23.886-10.993
		c-14.899-16.323-23.38-7.823-23.38-27.127c0-19.31,23.874-41.981,24.443-18.608c0.494,20.292,13.304,23.659,23.102,27.715
		c3.848-75.494,30.114-146.849,75.557-206.33c10.089-13.215,21.127-25.842,33.076-37.804
		c70.393-70.348,163.988-109.146,263.546-109.146s193.152,38.798,263.546,109.146c70.342,70.393,109.14,163.982,109.14,263.546
		c0,99.513-38.798,193.109-109.14,263.489C692.902,834.281,599.308,873.08,499.75,873.08z"/>
</g>
</svg>
