<?xml version="1.0" encoding="utf-8"?>
<!-- Generator: Adobe Illustrator 16.0.0, SVG Export Plug-In . SVG Version: 6.00 Build 0)  -->
<!DOCTYPE svg PUBLIC "-//W3C//DTD SVG 1.1//EN" "http://www.w3.org/Graphics/SVG/1.1/DTD/svg11.dtd">
<svg version="1.1" id="Layer_1" xmlns="http://www.w3.org/2000/svg" xmlns:xlink="http://www.w3.org/1999/xlink" x="0px" y="0px"
	 width="1000px" height="1000px" viewBox="0 0 1000 1000" enable-background="new 0 0 1000 1000" xml:space="preserve">
<path fill-rule="evenodd" clip-rule="evenodd" fill="#030303" d="M898.854,535.718h-69.715c-18.546,0-33.621-15.008-33.621-33.561
	c0-18.551,15.075-33.627,33.621-33.627h69.715c18.544,0,33.547,15.077,33.547,33.627C932.4,520.71,917.397,535.718,898.854,535.718
	L898.854,535.718z M766.789,324.753c-13.064,13.141-34.397,13.141-47.483,0c-13.134-13.137-13.134-34.395,0-47.536l49.289-49.285
	c13.087-13.137,34.398-13.137,47.477,0c13.141,13.14,13.141,34.403,0,47.544L766.789,324.753L766.789,324.753z M716.021,556.334
	c32.021,33.949,51.982,79.55,51.982,129.925c0,103.268-82.317,187.005-184.986,189.641v1.745H289.009v-2.638
	C161.075,863.339,60.914,755.954,60.914,625.001c0-138.693,112.395-251.098,251.084-251.098c29.456,0,57.535,5.6,83.816,14.948
	c32.197-50.378,88.52-83.87,152.735-83.87c100.229,0,181.463,81.295,181.463,181.457
	C730.013,511.236,725.045,534.817,716.021,556.334L716.021,556.334z M549.708,372.363c-37.682,0-72.462,18.546-93.46,46.5
	c34.963,27.384,47.585,38.53,74.637,83.555c50.707-12.629,91.934-3.8,126.072,11.463c5.092-5.087,7.988-13.399,7.988-26.279
	C664.945,423.956,613.353,372.363,549.708,372.363L549.708,372.363z M580.358,563.033c-33.179,0-63.125,13.264-85.345,34.527
	c-13.27-89.285-90.046-157.826-183.016-157.826c-102.281,0-185.26,82.972-185.26,185.267c0,102.355,82.979,185.258,185.26,185.258
	c13.732,0,26.928-1.738,39.822-4.572h196.471c10.236,2.774,20.925,4.572,32.067,4.572c68.29,0,123.687-55.327,123.687-123.606
	C704.045,618.362,648.648,563.033,580.358,563.033L580.358,563.033z M544.305,251.193c-18.566,0-33.642-15.011-33.642-33.565
	v-69.697c0-18.555,15.075-33.631,33.642-33.631c18.544,0,33.545,15.076,33.545,33.631v69.697
	C577.85,236.182,562.849,251.193,544.305,251.193L544.305,251.193z M319.215,324.753l-49.27-49.277
	c-13.141-13.141-13.141-34.404,0-47.544c13.141-13.137,34.398-13.137,47.539,0l49.282,49.285c13.065,13.141,13.065,34.398,0,47.536
	C353.612,337.894,332.356,337.894,319.215,324.753L319.215,324.753z"/>
</svg>
