<?xml version="1.0" encoding="utf-8"?>
<!-- Generator: Adobe Illustrator 16.0.0, SVG Export Plug-In . SVG Version: 6.00 Build 0)  -->
<!DOCTYPE svg PUBLIC "-//W3C//DTD SVG 1.1//EN" "http://www.w3.org/Graphics/SVG/1.1/DTD/svg11.dtd">
<svg version="1.1" id="Layer_1" xmlns="http://www.w3.org/2000/svg" xmlns:xlink="http://www.w3.org/1999/xlink" x="0px" y="0px"
	 width="1000px" height="1000px" viewBox="0 0 1000 1000" enable-background="new 0 0 1000 1000" xml:space="preserve">
<path fill="#060606" d="M717.729,813.49c-66.964,0-373.285,0-443.437,0c-120.112,0-217.479-100.142-217.479-220.255
	c0-109.791,80.051-200.314,185.743-215.093c35.834-104.761,136.257-182.956,253.161-182.956
	c139.282,0,253.41,109.736,265.12,245.951c82.663,19.494,144.249,93.549,144.249,182.175
	C905.087,726.815,821.188,813.49,717.729,813.49L717.729,813.49z M717.729,496.412c-9.693,0-19.062,1.226-28.126,3.274
	c2.972-13.705,4.619-27.941,4.619-42.514c0-109.639-88.865-201.345-198.504-201.345c-103.784,0-190.265,82.49-199.047,183.986
	c-7.796-1.171-15.646-1.995-23.788-1.995c-85.808,0-154.007,69.565-154.007,155.416c0,85.852,69.565,155.416,155.416,155.416
	c68.98,0,376.018,0.195,443.437,0.195c70.063,0,126.9-55.427,126.9-125.534C844.629,553.271,787.792,496.412,717.729,496.412
	L717.729,496.412z M908.729,511.137c-10.409-17.793-23.333-33.98-38.36-48.163c9.692-19.993,15.31-42.317,15.31-66.009
	c0-83.704-67.853-151.567-151.6-151.567c-10.539,0-20.774,1.074-30.728,3.123c-16.567-15.949-34.805-30.131-54.538-41.972
	c26.021-11.71,54.819-18.334,85.266-18.334c115.32,0,208.782,93.451,208.782,208.75
	C942.861,439.132,930.241,478.327,908.729,511.137L908.729,511.137z"/>
</svg>
