<?xml version="1.0" encoding="utf-8"?>
<!-- Generator: Adobe Illustrator 16.0.0, SVG Export Plug-In . SVG Version: 6.00 Build 0)  -->
<!DOCTYPE svg PUBLIC "-//W3C//DTD SVG 1.1//EN" "http://www.w3.org/Graphics/SVG/1.1/DTD/svg11.dtd">
<svg version="1.1" id="Layer_1" xmlns="http://www.w3.org/2000/svg" xmlns:xlink="http://www.w3.org/1999/xlink" x="0px" y="0px"
	 width="1000px" height="1000px" viewBox="0 0 1000 1000" enable-background="new 0 0 1000 1000" xml:space="preserve">
<path fill="#020202" d="M561.031,267.848c-10.854,5.183-24.196-0.072-29.787-11.789l-25.258-46.932
	c-5.636-11.707-1.389-25.421,9.466-30.64c10.854-5.191,24.196,0.118,29.787,11.835l25.303,46.886
	C576.133,248.961,571.922,262.666,561.031,267.848L561.031,267.848z M763.222,217.332l-18.315,50.025
	c-5.063,11.998-18.115,17.916-29.205,13.224c-11.073-4.646-16.01-18.16-10.946-30.113l18.315-50.025
	c5.064-11.999,18.17-17.916,29.224-13.224C763.403,191.865,768.304,205.379,763.222,217.332L763.222,217.332z M619.824,824.503
	c-56.053,0-312.489,0-371.173,0c-100.551,0-182.043-83.824-182.043-184.366c0-91.901,66.962-167.675,155.441-180.045
	c30.032-87.69,114.092-153.146,211.947-153.146c116.542,0,212.074,91.856,221.912,205.875
	c69.212,16.318,120.745,78.307,120.745,152.492C776.654,751.951,706.426,824.503,619.824,824.503L619.824,824.503z M619.824,559.09
	c-8.114,0-15.974,1.017-23.579,2.741c2.523-11.472,3.921-23.397,3.921-35.596c0-91.765-74.395-168.528-166.169-168.528
	c-86.873,0-159.271,69.049-166.613,154.008c-6.535-0.98-13.097-1.67-19.912-1.67c-71.862,0-128.958,58.229-128.958,130.092
	s58.275,130.093,130.138,130.093c57.74,0,314.703,0.163,371.173,0.163c58.647,0,106.223-46.396,106.223-105.079
	C726.047,606.684,678.472,559.09,619.824,559.09L619.824,559.09z M779.722,571.415c-8.731-14.902-19.586-28.443-32.11-40.314
	c8.113-16.736,12.815-35.423,12.815-55.254c0-70.064-56.815-126.87-126.916-126.87c-8.822,0-17.426,0.898-25.703,2.613
	c-13.886-13.351-29.151-25.222-45.669-35.132c21.781-9.802,45.905-15.348,71.372-15.348c96.548,0,174.763,78.225,174.763,174.736
	C808.273,511.134,797.71,543.952,779.722,571.415L779.722,571.415z M908.107,365.177l-48.12,22.935
	c-11.998,5.019-25.466,0.118-30.113-10.973c-4.646-11.1,1.308-24.205,13.251-29.225l48.12-22.889
	c11.998-5.028,25.467-0.082,30.113,10.973C926.005,347.098,920.052,360.203,908.107,365.177L908.107,365.177z M930.18,566.024
	c-4.574,11.145-18.042,16.154-30.041,11.218l-50.188-17.935c-12.053-4.937-18.043-17.97-13.469-29.115
	c4.574-11.09,18.043-16.118,30.022-11.181l50.208,17.934C928.746,541.919,934.754,554.934,930.18,566.024L930.18,566.024z"/>
</svg>
