<?xml version="1.0" encoding="utf-8"?>
<!-- Generator: Adobe Illustrator 16.0.0, SVG Export Plug-In . SVG Version: 6.00 Build 0)  -->
<!DOCTYPE svg PUBLIC "-//W3C//DTD SVG 1.1//EN" "http://www.w3.org/Graphics/SVG/1.1/DTD/svg11.dtd">
<svg version="1.1" id="图层_1" xmlns="http://www.w3.org/2000/svg" xmlns:xlink="http://www.w3.org/1999/xlink" x="0px" y="0px"
	 width="1000px" height="1000px" viewBox="0 0 1000 1000" enable-background="new 0 0 1000 1000" xml:space="preserve">
<path fill-rule="evenodd" clip-rule="evenodd" d="M500.938,965.762c-252.896,0-457.963-208.209-457.963-465.014
	S248.041,35.705,500.938,35.705c252.84,0,457.877,208.238,457.877,465.043S753.777,965.762,500.938,965.762L500.938,965.762z
	 M500.938,151.959c-189.744,0-343.465,156.1-343.465,348.789c0,192.633,153.721,348.789,343.465,348.789
	c189.688,0,343.408-156.156,343.408-348.789C844.346,308.059,690.625,151.959,500.938,151.959L500.938,151.959z M736.221,663.078
	c-51.373,77.088-136.844,128.289-235.283,128.289c-100.195,0-187.195-53.24-238.059-132.48
	c-10.816-10.648-17.727-25.432-17.727-41.857c0-32.113,25.6-58.168,57.205-58.168c7.93,0,15.406,1.699,22.316,4.645l4.531-4.645
	h10.535c23.619,67.684,86.432,116.225,161.197,116.225c74.709,0,137.578-48.541,161.141-116.225h10.535l5.947,6.061
	c7.533-3.682,15.689-6.061,24.525-6.061c31.549,0,57.205,26.055,57.205,58.168C760.291,636.344,750.436,652.543,736.221,663.078
	L736.221,663.078z M615.35,442.635c-31.605,0-57.148-25.996-57.148-58.141c0-32.059,25.543-58.084,57.148-58.084
	c31.662,0,57.264,26.025,57.264,58.084C672.613,416.639,647.012,442.635,615.35,442.635L615.35,442.635z M386.469,442.635
	c-31.605,0-57.264-25.996-57.264-58.141c0-32.059,25.658-58.084,57.264-58.084s57.205,26.025,57.205,58.084
	C443.674,416.639,418.074,442.635,386.469,442.635L386.469,442.635z"/>
<path d="M43.004,965.762"/>
</svg>
