<?xml version="1.0" encoding="utf-8"?>
<!-- Generator: Adobe Illustrator 16.0.0, SVG Export Plug-In . SVG Version: 6.00 Build 0)  -->
<!DOCTYPE svg PUBLIC "-//W3C//DTD SVG 1.1//EN" "http://www.w3.org/Graphics/SVG/1.1/DTD/svg11.dtd">
<svg version="1.1" id="图层_1" xmlns="http://www.w3.org/2000/svg" xmlns:xlink="http://www.w3.org/1999/xlink" x="0px" y="0px"
	 width="1000px" height="1000px" viewBox="0 0 1000 1000" enable-background="new 0 0 1000 1000" xml:space="preserve">
<path fill-rule="evenodd" clip-rule="evenodd" d="M936.48,633.24c-14.404,45.447-49.467,126.346-97.871,155.32l-141.754-3.629
	c0,0-85.029-55.719-124.055-54.49c-32.158,1.006-72.076-0.223-108.869-0.223c-58.566,0-108.311-14.461-145.549-57.84
	c-37.238-43.27-46.953-73.92-46.953-156.381c0-82.406,14.014-137.566,59.793-183.516c45.838-45.893,98.207-68.895,157.051-68.895
	c27.357,0,50.975,3.154,70.738,9.436c19.764,6.309,34.336,14.795,54.545,25.264v-25.264H681l48.293,60.744v343.523l50.305-6.924
	c13.734-23.615,30.539-23.393,36.457-61.078c6.029-37.686,27.803-71.854,27.803-102.561c0-108.98-30.092-187.813-90.221-254.307
	c-60.186-66.438-129.75-93.627-242.527-93.627c-106.971,0-173.912,26.129-243.42,97.898
	c-69.566,71.854-110.266,157.498-110.266,259.861c0,109.932,32.27,174.693,99.881,242.807
	c67.555,68.17,142.031,89.162,251.125,89.162c29.254,0,60.018-1.787,92.455-5.527c32.213-3.686,62.92-3.854,91.84-11.893
	l9.994,109.539c-31.936,7.035-64.373,11.947-97.201,14.74c-32.883,2.791-65.32,4.186-97.201,4.186
	c-134.605,0-245.932-42.541-334.145-127.738C85.961,746.576,41.855,636.088,41.855,500.42c0-128.633,41.314-241.104,132.43-329.482
	C265.232,82.67,380.354,42.389,511.109,42.389c139.91,0,253.58,39.668,332.637,122.967
	c79.055,83.299,114.451,193.424,114.451,326.719C958.197,540.73,950.939,587.852,936.48,633.24L936.48,633.24z M614.395,444.535
	c0-31.572-25.57-57.172-57.227-57.172c-8.541,0-16.414,2.094-23.783,5.5c-10.551-3.238-21.662-5.5-33.387-5.5
	c-63.088,0-114.34,51.141-114.34,114.285S436.91,615.99,499.998,615.99c11.725,0,22.836-2.234,33.387-5.473
	c7.369,3.406,15.242,5.473,23.783,5.473c31.656,0,57.227-25.57,57.227-57.172V444.535L614.395,444.535z"/>
<path d="M42.691,959.066"/>
</svg>
