<?xml version="1.0" encoding="utf-8"?>
<!-- Generator: Adobe Illustrator 16.0.0, SVG Export Plug-In . SVG Version: 6.00 Build 0)  -->
<!DOCTYPE svg PUBLIC "-//W3C//DTD SVG 1.1//EN" "http://www.w3.org/Graphics/SVG/1.1/DTD/svg11.dtd">
<svg version="1.1" id="Layer_1" xmlns="http://www.w3.org/2000/svg" xmlns:xlink="http://www.w3.org/1999/xlink" x="0px" y="0px"
	 width="1000px" height="1000px" viewBox="0 0 1000 1000" enable-background="new 0 0 1000 1000" xml:space="preserve">
<path fill-rule="evenodd" clip-rule="evenodd" fill="#050000" d="M888.297,291.388L693.696,425.74
	c-74.055,28.027-38.011,66.067-38.011,66.067l38.011,32.038c26.281,30.036-7.975,74.29-7.975,74.29
	c-20.023,36.033-58.046,10.013-58.046,10.013L384.992,365.482c-5.994-24.011,30.216-54.047,30.216-54.047
	c18.022-24.04,54.053,0,54.053,0l42.025,46.044c36.091,32.045,70.3-42.057,70.3-42.057L697.76,141.025
	C763.982,26.72,844.077,92.972,844.077,92.972l76.294,72.092C962.398,243.337,888.297,291.388,888.297,291.388L888.297,291.388z
	 M793.291,167.413c-24.195,0-43.695,19.685-43.695,43.696c0,24.217,19.5,43.699,43.695,43.699c24.04,0,43.695-19.482,43.695-43.699
	C836.986,187.097,817.331,167.413,793.291,167.413L793.291,167.413z M603.588,688.244L489.285,814.562
	c-23.993,22.038-44.017,96.294-44.017,96.294c-16.054,20.023-22.051,12.013-22.051,12.013l-60.263-58.247l34.053-74.076
	l-66.091,44.076l-38.045-28.058l32.051-60.073l-64.089,24.029l-28.212-28.045l26.234-56.245l-58.249,28.033l-48.082-56.055
	l38.069-56.08l-68.104,26.044l-34.208-30.037c-38.063-24.04-24.04-40.047-24.04-40.047c-4.011-12.205,68.259-20.227,68.259-20.227
	c26.02-7.985,174.399-140.173,174.399-140.173c26.02-20.185,56.054,6.019,56.054,6.019l246.677,242.476
	C621.633,664.202,603.588,688.244,603.588,688.244L603.588,688.244z"/>
</svg>
