<?xml version="1.0" encoding="utf-8"?>
<!-- Generator: Adobe Illustrator 16.0.0, SVG Export Plug-In . SVG Version: 6.00 Build 0)  -->
<!DOCTYPE svg PUBLIC "-//W3C//DTD SVG 1.1//EN" "http://www.w3.org/Graphics/SVG/1.1/DTD/svg11.dtd">
<svg version="1.1" id="Layer_1" xmlns="http://www.w3.org/2000/svg" xmlns:xlink="http://www.w3.org/1999/xlink" x="0px" y="0px"
	 width="1000px" height="1000px" viewBox="0 0 1000 1000" enable-background="new 0 0 1000 1000" xml:space="preserve">
<path fill="#060606" d="M738.111,775.15c-17.215,0-51.537,0-92.37,0c-5.449-18.34-14.944-42.908-26.32-64.449
	c52.706,0.217,96.609,0.347,117.522,0.347c70.116,0,126.996-55.626,126.996-125.784c0-70.159-56.88-126.995-126.996-126.995
	c-9.71,0-19.097,1.167-28.137,3.266c2.963-13.712,4.649-27.965,4.649-42.552c0-109.737-88.974-198.712-198.711-198.712
	c-103.854,0-188.979,79.74-197.781,181.355c-7.786-1.211-15.658-2.043-23.79-2.043c-85.903,0-155.543,72.008-155.543,157.911
	c0,85.925,69.64,153.207,155.543,153.207c23.055,0,72.689,0.151,131.04,0.39c-11.571,21.844-21.238,45.525-26.731,64.06
	c-46.391,0-84.606,0-104.309,0c-120.183,0-217.613-97.409-217.613-217.656c0-109.823,81.427-202.788,187.228-217.613
	c35.879-104.828,134.976-182.675,251.957-182.675c139.409,0,253.602,109.401,265.323,245.739
	c82.768,19.486,144.362,93.636,144.362,182.318C924.431,688.836,841.685,775.15,738.111,775.15L738.111,775.15z M521.602,843.882
	c-30.041,0-54.415-24.352-54.415-54.457c0-30.04,54.415-101.129,54.415-101.129s54.414,71.089,54.414,101.129
	C576.016,819.53,551.642,843.882,521.602,843.882L521.602,843.882z"/>
</svg>
