<?xml version="1.0" encoding="utf-8"?>
<!-- Generator: Adobe Illustrator 16.0.0, SVG Export Plug-In . SVG Version: 6.00 Build 0)  -->
<!DOCTYPE svg PUBLIC "-//W3C//DTD SVG 1.1//EN" "http://www.w3.org/Graphics/SVG/1.1/DTD/svg11.dtd">
<svg version="1.1" id="Layer_1" xmlns="http://www.w3.org/2000/svg" xmlns:xlink="http://www.w3.org/1999/xlink" x="0px" y="0px"
	 width="1000px" height="1000px" viewBox="0 0 1000 1000" enable-background="new 0 0 1000 1000" xml:space="preserve">
<path fill-rule="evenodd" clip-rule="evenodd" fill="#040000" d="M805.29,926.515H196.872c-67.213,0-121.764-54.337-121.764-121.54
	V439.883c0-67.212,54.551-121.764,121.764-121.764h61.374V195.528h120.992v122.591h60.548V195.528h121.158v122.591h63.881V195.528
	h121.161v122.591h59.305c67.212,0,121.585,54.552,121.585,121.764v365.091C926.875,872.178,872.502,926.515,805.29,926.515
	L805.29,926.515z M809.864,498.585c0-33.635-27.146-60.994-60.781-60.994H255.157c-33.566,0-60.791,27.359-60.791,60.994v63.465
	h615.498V498.585L809.864,498.585z M809.864,622.631H194.366v120.926c0,33.421,27.225,60.791,60.791,60.791h493.926
	c33.635,0,60.781-27.37,60.781-60.791V622.631L809.864,622.631z M621.502,74.367h124.483v57.258H621.502V74.367L621.502,74.367z
	 M436.463,74.367h124.48v57.258h-124.48V74.367L436.463,74.367z M254.746,74.367h124.492v57.258H254.746V74.367L254.746,74.367z"/>
</svg>
