<?xml version="1.0" encoding="utf-8"?>
<!-- Generator: Adobe Illustrator 16.0.0, SVG Export Plug-In . SVG Version: 6.00 Build 0)  -->
<!DOCTYPE svg PUBLIC "-//W3C//DTD SVG 1.1//EN" "http://www.w3.org/Graphics/SVG/1.1/DTD/svg11.dtd">
<svg version="1.1" id="Layer_1" xmlns="http://www.w3.org/2000/svg" xmlns:xlink="http://www.w3.org/1999/xlink" x="0px" y="0px"
	 width="1000px" height="1000px" viewBox="0 0 1000 1000" enable-background="new 0 0 1000 1000" xml:space="preserve">
<path fill="#020202" d="M874.241,433.295c-9.552-16.314-21.438-31.107-35.122-44.14c8.84-18.273,13.962-38.722,13.962-60.416
	c0-76.651-62.116-138.768-138.748-138.768c-9.651,0-19.084,0.989-28.161,2.848c-15.148-14.575-31.819-27.567-49.954-38.405
	c23.869-10.718,50.271-16.81,78.115-16.81c105.544,0,191.114,85.591,191.114,191.135
	C905.447,367.362,893.898,403.196,874.241,433.295L874.241,433.295z M699.343,707.528c-15.208,0-44.062,0-79.639,0l45.9-55.451
	c14.18,0.059,25.827,0.099,33.738,0.099c64.153,0,116.164-52.011,116.164-116.164c0-64.213-52.011-116.224-116.164-116.224
	c-8.86,0-17.482,1.107-25.749,2.986c2.71-12.538,4.271-25.531,4.271-38.919c0-100.383-81.397-181.781-181.74-181.781
	c-95.063,0-172.961,72.954-181.01,165.921c-7.1-1.107-14.298-1.879-21.734-1.879c-78.609,0-142.308,63.718-142.308,142.328
	c0,78.589,63.698,142.268,142.308,142.268c8.722,0,21.873,0.04,37.832,0.079l-20.172,56.737c-6.941,0-12.953,0-17.66,0
	c-109.954,0-199.124-89.149-199.124-199.084c0-100.521,74.556-183.402,171.3-196.969c32.809-95.894,123.501-164.932,230.568-164.932
	c127.456,0,231.932,97.931,242.69,222.657c75.683,17.857,132.044,85.67,132.044,166.811
	C870.859,630.738,794.089,707.528,699.343,707.528L699.343,707.528z M602.203,650.475L425.999,863.541l46.414-153.264l-95.538-0.534
	l71.53-201.299h140.982l-82.248,142.03H602.203L602.203,650.475z M268.622,823.87c-22.327,0-40.422-18.095-40.422-40.401
	c0-22.327,18.095-40.423,40.422-40.423c22.307,0,40.402,18.096,40.402,40.423C309.024,805.775,290.929,823.87,268.622,823.87
	L268.622,823.87z M685.202,823.87c-22.326,0-40.422-18.095-40.422-40.401c0-22.327,18.096-40.423,40.422-40.423
	c22.327,0,40.423,18.096,40.423,40.423C725.625,805.775,707.529,823.87,685.202,823.87L685.202,823.87z"/>
</svg>
