<?xml version="1.0" encoding="utf-8"?>
<!-- Generator: Adobe Illustrator 16.0.0, SVG Export Plug-In . SVG Version: 6.00 Build 0)  -->
<!DOCTYPE svg PUBLIC "-//W3C//DTD SVG 1.1//EN" "http://www.w3.org/Graphics/SVG/1.1/DTD/svg11.dtd">
<svg version="1.1" id="Layer_1" xmlns="http://www.w3.org/2000/svg" xmlns:xlink="http://www.w3.org/1999/xlink" x="0px" y="0px"
	 width="1000px" height="1000px" viewBox="0 0 1000 1000" enable-background="new 0 0 1000 1000" xml:space="preserve">
<path fill="#060606" d="M750.12,673.312v-56.955c58.098-7.798,90.188-57.403,90.188-117.573
	c0-65.631-53.137-118.778-118.727-118.778c-9.084,0-17.862,1.103-26.354,3.031c2.817-12.85,4.369-26.108,4.369-39.786
	c0-102.62-83.207-185.776-185.767-185.776c-97.17,0-176.743,74.531-185.011,169.527c-7.287-1.103-14.637-1.879-22.251-1.879
	c-80.308,0-145.429,65.12-145.429,145.479c0,70.918,42.032,129.873,109.174,142.774v58.649
	c-99.313-13.453-167.23-98.395-167.23-201.424c0-102.753,76.185-187.471,175.069-201.331
	c33.561-97.987,126.26-168.619,235.678-168.619c130.281,0,237.128,100.1,248.09,227.595
	c77.389,18.26,134.977,87.564,134.977,170.537C896.896,590.247,839.573,665.269,750.12,673.312L750.12,673.312z M374.484,831.886
	c-22.618,0-40.93-18.372-40.93-40.95V746.74v-13.779V559.688c0-22.618,18.312-40.99,40.93-40.99c22.639,0,40.95,18.372,40.95,40.99
	v173.273v13.779v44.195C415.435,813.514,397.123,831.886,374.484,831.886L374.484,831.886z M542.96,867.365
	c0,17.883-14.453,32.336-32.295,32.336c-17.903,0-32.355-14.453-32.355-32.336v-53.116c0-0.817,0.163-1.593,0.225-2.43
	c-0.062-0.837-0.225-1.612-0.225-2.47V677.354c0-17.842,14.452-32.356,32.355-32.356c17.842,0,32.295,14.515,32.295,32.356V809.35
	c0,0.857-0.184,1.633-0.225,2.47c0.041,0.837,0.225,1.612,0.225,2.43V867.365L542.96,867.365z M646.233,831.886
	c-22.598,0-40.95-18.372-40.95-40.95V746.74v-13.779V559.688c0-22.618,18.353-40.99,40.95-40.99c22.619,0,40.93,18.372,40.93,40.99
	v173.273v13.779v44.195C687.163,813.514,668.853,831.886,646.233,831.886L646.233,831.886z"/>
</svg>
