<?xml version="1.0" encoding="utf-8"?>
<!-- Generator: Adobe Illustrator 16.0.0, SVG Export Plug-In . SVG Version: 6.00 Build 0)  -->
<!DOCTYPE svg PUBLIC "-//W3C//DTD SVG 1.1//EN" "http://www.w3.org/Graphics/SVG/1.1/DTD/svg11.dtd">
<svg version="1.1" id="Layer_1" xmlns="http://www.w3.org/2000/svg" xmlns:xlink="http://www.w3.org/1999/xlink" x="0px" y="0px"
	 width="1000px" height="1000px" viewBox="0 0 1000 1000" enable-background="new 0 0 1000 1000" xml:space="preserve">
<path fill="#020202" d="M710.333,636.159c-15.287,0-44.712,0-80.956,0c-4.828-16.283-13.237-37.394-23.353-56.512
	c46.762,0.229,85.745,0.345,104.309,0.345c62.221,0,112.718-50.459,112.718-112.747c0-62.23-50.497-112.708-112.718-112.708
	c-8.621,0-16.973,1.034-25.019,2.845c2.662-12.146,4.176-24.76,4.176-37.729c0-97.412-79.002-176.356-176.365-176.356
	c-92.201,0-167.784,70.765-175.629,160.944c-6.887-1.082-13.859-1.762-21.101-1.762c-76.225,0-138.072,61.799-138.072,138.071
	c0,76.225,61.848,138.023,138.072,138.023c20.459,0,64.52,0.173,116.328,0.384c-10.296,19.386-18.821,40.746-23.734,57.201
	c-41.168,0-75.104,0-92.594,0c-106.674,0-193.195-88.925-193.195-195.608c0-97.546,72.354-177.956,166.241-191.088
	C321.261,156.391,409.296,89.38,513.125,89.38c123.685,0,225.062,95.046,235.482,216.021
	c73.447,17.355,128.178,83.121,128.178,161.845C876.785,559.188,802.246,636.159,710.333,636.159L710.333,636.159z M519.197,694.74
	c-26.695,0-48.322-21.628-48.322-48.39c0-26.646,48.322-89.729,48.322-89.729s48.284,63.083,48.284,89.729
	C567.481,673.112,545.854,694.74,519.197,694.74L519.197,694.74z M333.062,815.044c-26.656,0-48.322-21.608-48.322-48.352
	c0-26.627,48.322-89.748,48.322-89.748s48.322,63.121,48.322,89.748C381.384,793.436,359.766,815.044,333.062,815.044
	L333.062,815.044z M726.521,815.044c-26.647,0-48.313-21.608-48.313-48.352c0-26.627,48.313-89.748,48.313-89.748
	s48.332,63.121,48.332,89.748C774.853,793.436,753.225,815.044,726.521,815.044L726.521,815.044z M529.188,910.636
	c-26.656,0-48.313-21.628-48.313-48.39c0-26.608,48.313-89.729,48.313-89.729s48.313,63.121,48.313,89.729
	C577.501,889.008,555.892,910.636,529.188,910.636L529.188,910.636z"/>
</svg>
