<?xml version="1.0" encoding="utf-8"?>
<!-- Generator: Adobe Illustrator 16.0.0, SVG Export Plug-In . SVG Version: 6.00 Build 0)  -->
<!DOCTYPE svg PUBLIC "-//W3C//DTD SVG 1.1//EN" "http://www.w3.org/Graphics/SVG/1.1/DTD/svg11.dtd">
<svg version="1.1" id="Layer_1" xmlns="http://www.w3.org/2000/svg" xmlns:xlink="http://www.w3.org/1999/xlink" x="0px" y="0px"
	 width="1000px" height="1000px" viewBox="0 0 1000 1000" enable-background="new 0 0 1000 1000" xml:space="preserve">
<g>
	<path fill-rule="evenodd" clip-rule="evenodd" fill="#010101" d="M499.879,63.211c-211.122,0-382.252,171.139-382.252,382.227
		c0,129.081,64.047,243.146,162.04,312.371v131.301c0,26.386,19.447,47.619,43.733,47.619h8.189
		c-2.508-14.847,0.901-30.484,11.25-41.973l123.656-39.583c16.947-18.725,44.609-18.725,61.744,0l123.656,39.583
		c10.373,11.488,13.75,27.126,11.25,41.973h9.813c24.098,0,43.545-21.233,43.545-47.619V760.309
		c99.924-68.962,165.416-184.242,165.416-314.871C881.918,234.35,710.967,63.211,499.879,63.211z M499.879,718.668
		c-150.628,0-273.222-122.567-273.222-273.23c0-150.595,122.593-273.162,273.222-273.162c150.604,0,273.01,122.567,273.01,273.162
		C772.889,596.101,650.482,718.668,499.879,718.668z"/>
	<polygon fill-rule="evenodd" clip-rule="evenodd" fill="#010101" points="563.586,377.462 499.879,280.209 499.505,279.146 
		437.235,376.237 334.99,400.863 402.073,503.958 391.725,608.55 499.879,555.557 607.123,608.55 597.123,505.233 661.895,400.863 	
		"/>
</g>
</svg>
