<?xml version="1.0" encoding="utf-8"?>
<!-- Generator: Adobe Illustrator 16.0.0, SVG Export Plug-In . SVG Version: 6.00 Build 0)  -->
<!DOCTYPE svg PUBLIC "-//W3C//DTD SVG 1.1//EN" "http://www.w3.org/Graphics/SVG/1.1/DTD/svg11.dtd">
<svg version="1.1" id="Layer_1" xmlns="http://www.w3.org/2000/svg" xmlns:xlink="http://www.w3.org/1999/xlink" x="0px" y="0px"
	 width="1000px" height="1000px" viewBox="0 0 1000 1000" enable-background="new 0 0 1000 1000" xml:space="preserve">
<path fill-rule="evenodd" clip-rule="evenodd" fill="#050000" d="M888.949,521.396h-77.001v266.375
	c0,59.107-45.261,107.118-101.078,107.118H544.485V674.113c0-29.579-49.079-50.164-78.637-50.164
	c-29.583,0-81.926,20.585-81.926,50.164V894.89H271.526c-55.848,0-101.082-48.011-101.082-107.118V521.396H95.989
	c-43.77-46.361-43.77-114.959,0-161.322l317.123-235.351c43.775-46.331,114.756-46.331,158.551,0l317.287,235.351
	C932.743,406.438,932.743,475.035,888.949,521.396L888.949,521.396z"/>
</svg>
