<?xml version="1.0" encoding="utf-8"?>
<!-- Generator: Adobe Illustrator 16.0.0, SVG Export Plug-In . SVG Version: 6.00 Build 0)  -->
<!DOCTYPE svg PUBLIC "-//W3C//DTD SVG 1.1//EN" "http://www.w3.org/Graphics/SVG/1.1/DTD/svg11.dtd">
<svg version="1.1" id="Layer_1" xmlns="http://www.w3.org/2000/svg" xmlns:xlink="http://www.w3.org/1999/xlink" x="0px" y="0px"
	 width="1000px" height="1000px" viewBox="0 0 1000 1000" enable-background="new 0 0 1000 1000" xml:space="preserve">
<path fill-rule="evenodd" clip-rule="evenodd" fill="#050000" d="M827.145,872.719H160.751c-54.443,0-98.458-44.129-98.458-98.439
	V213.809c0-54.319,44.016-98.449,98.458-98.449h666.393c54.444,0,98.45,44.13,98.45,98.449v560.471
	C925.595,828.59,881.589,872.719,827.145,872.719L827.145,872.719z M819.526,284.423c0-36.283-29.405-65.713-65.724-65.713H231.138
	c-36.318,0-65.61,29.431-65.61,65.713v401.318c34.697-50.876,104.596-142.831,152.291-134.132
	c65.715,11.787,95.992,107.77,131.43,107.77c35.298,0,90.968-171.784,176.917-171.784c69.053,0,153.389,120.889,193.36,195.461
	V284.423L819.526,284.423z M424.001,479.147c-51.146,0-92.696-41.566-92.696-92.708c0-51.122,41.55-92.564,92.696-92.564
	c51.104,0,92.687,41.443,92.687,92.564C516.688,437.581,475.104,479.147,424.001,479.147L424.001,479.147z"/>
</svg>
