<?xml version="1.0" encoding="utf-8"?>
<!-- Generator: Adobe Illustrator 16.0.0, SVG Export Plug-In . SVG Version: 6.00 Build 0)  -->
<!DOCTYPE svg PUBLIC "-//W3C//DTD SVG 1.1//EN" "http://www.w3.org/Graphics/SVG/1.1/DTD/svg11.dtd">
<svg version="1.1" id="Layer_1" xmlns="http://www.w3.org/2000/svg" xmlns:xlink="http://www.w3.org/1999/xlink" x="0px" y="0px"
	 width="1000px" height="1000px" viewBox="0 0 1000 1000" enable-background="new 0 0 1000 1000" xml:space="preserve">
<path fill-rule="evenodd" clip-rule="evenodd" fill="#0C0707" d="M810.172,889.421H168.697
	c-55.886,0-101.236-46.329-101.236-103.506V214.097c0-57.176,45.35-103.518,101.236-103.518h662.514
	c55.978,0,101.323,46.342,101.323,103.518v571.818C932.534,843.092,866.074,889.421,810.172,889.421L810.172,889.421z
	 M793.803,199.575H205.544c-27.988,0-50.661,23.235-50.661,51.778v478.304l129.804-124.339
	c18.345-18.775,43.919-33.797,68.084-33.797c24.091,0,45.486,13.6,63.827,32.383l37.694,35.987
	c6.167,6.316,14.244,9.425,22.251,9.425c8.077,0,16.084-3.108,22.239-9.425l133.776-155.862
	c18.551-18.989,29.324-28.546,54.117-28.546c23.743,0,35.93,12.88,54.273,30.39l103.506,107.334V251.353
	C844.455,222.811,821.795,199.575,793.803,199.575L793.803,199.575z M434.385,458.162c-48.603,0-88.141-40.443-88.141-90.121
	c0-49.372,40.745-89.472,89.067-90.043c48.317,0.571,87.285,40.671,87.285,90.043C522.596,417.719,482.984,458.162,434.385,458.162
	L434.385,458.162z M436.233,277.937c-0.286,0-0.645,0.062-0.922,0.062c-0.281,0-0.641-0.062-0.926-0.062H436.233L436.233,277.937z"
	/>
</svg>
