<?xml version="1.0" encoding="utf-8"?>
<!-- Generator: Adobe Illustrator 16.0.0, SVG Export Plug-In . SVG Version: 6.00 Build 0)  -->
<!DOCTYPE svg PUBLIC "-//W3C//DTD SVG 1.1//EN" "http://www.w3.org/Graphics/SVG/1.1/DTD/svg11.dtd">
<svg version="1.1" id="Layer_1" xmlns="http://www.w3.org/2000/svg" xmlns:xlink="http://www.w3.org/1999/xlink" x="0px" y="0px"
	 width="1000px" height="1000px" viewBox="0 0 1000 1000" enable-background="new 0 0 1000 1000" xml:space="preserve">
<g>
	<path fill="#0A0303" d="M304.218,387.979c0,42.368,33.725,76.812,75.178,76.812c41.513,0,75.236-34.444,75.236-76.812
		c0-42.113-33.167-76.324-74.439-76.813C338.971,311.655,304.218,345.866,304.218,387.979z"/>
	<path fill="#0A0303" d="M675.277,758.802c-27.664,0-55.355,0-55.355,0c-40.668,0-73.785-33.116-73.785-73.784v-36.872
		c0-40.73,33.117-73.846,73.785-73.846c0,0,27.691,0,55.355,0c0-20.497,0-40.994,0-50.216l-34.315-35.598
		c-15.656-14.938-26.057-25.928-46.304-25.928c-21.21,0-30.39,8.163-46.229,24.351L434.328,619.863
		c-5.188,5.384-12.09,8.042-18.969,8.042c-6.831,0-13.727-2.658-18.917-8.042l-32.21-30.695
		c-15.66-16.021-33.837-27.616-54.447-27.616c-20.612,0-42.429,12.809-58.088,28.817L140.989,696.441V288.446
		c0-24.41,19.331-44.172,43.201-44.172h501.848c23.813,0,43.205,19.762,43.205,44.172v159.496
		c6.318-1.769,12.958-2.786,19.832-2.786h18.43c10.849,0,24.192,2.6,36.812,7.068V256.659c0-48.772-38.683-88.288-86.377-88.288
		H152.824c-47.741,0-86.407,39.516-86.407,88.288v487.762c0,48.703,38.666,88.294,86.407,88.294h524.914
		c-1.553-5.939-2.461-12.137-2.461-18.551C675.277,814.164,675.277,786.473,675.277,758.802z"/>
	<path fill="#0A0303" d="M379.396,311.113c0.254,0,0.542,0.054,0.797,0.054c0.234,0,0.536-0.054,0.773-0.054H379.396z"/>
	<path fill="#0A0303" d="M915.074,629.654H804.417V519.011c0-10.225-26.694-18.5-36.912-18.5h-18.43
		c-10.211,0-18.429,8.275-18.429,18.5v110.644H619.922c-10.197,0-18.436,8.272-18.436,18.491v36.872
		c0,10.218,8.238,18.429,18.436,18.429h110.725v110.718c0,10.218,8.218,18.437,18.429,18.437h36.866
		c10.212,0,18.476-8.219,18.476-18.437V703.446h110.657c10.219,0,18.511-8.211,18.511-18.429v-36.872
		C933.585,637.927,925.293,629.654,915.074,629.654z"/>
</g>
</svg>
