<?xml version="1.0" encoding="utf-8"?>
<!-- Generator: Adobe Illustrator 16.0.0, SVG Export Plug-In . SVG Version: 6.00 Build 0)  -->
<!DOCTYPE svg PUBLIC "-//W3C//DTD SVG 1.1//EN" "http://www.w3.org/Graphics/SVG/1.1/DTD/svg11.dtd">
<svg version="1.1" id="Layer_1" xmlns="http://www.w3.org/2000/svg" xmlns:xlink="http://www.w3.org/1999/xlink" x="0px" y="0px"
	 width="1000px" height="1000px" viewBox="0 0 1000 1000" enable-background="new 0 0 1000 1000" xml:space="preserve">
<path fill="#060606" d="M211.471,355.434c-29.15,0-52.779-23.601-52.779-52.779c0-29.18,23.629-52.827,52.779-52.827
	c29.17,0,52.78,23.647,52.78,52.827C264.251,331.833,240.641,355.434,211.471,355.434L211.471,355.434z M424,257.134
	c-29.132,0-52.799-23.648-52.799-52.827c0-29.18,23.667-52.789,52.799-52.789c29.17,0,52.817,23.609,52.817,52.789
	C476.817,233.485,453.17,257.134,424,257.134L424,257.134z M424,459.013c-29.132,0-52.799-23.601-52.799-52.78
	s23.667-52.827,52.799-52.827c29.17,0,52.817,23.647,52.817,52.827S453.17,459.013,424,459.013L424,459.013z M612.073,355.387
	c-29.132,0-52.779-23.601-52.779-52.779c0-29.18,23.647-52.827,52.779-52.827c29.17,0,52.78,23.647,52.78,52.827
	C664.854,331.786,641.243,355.387,612.073,355.387L612.073,355.387z M795.583,577.89c-1.597,0-3.193-0.206-4.809-0.263
	c-0.845,0.057-1.653,0.263-2.498,0.263H128.319c-19.215,0-34.843-11.57-34.843-30.278c0-18.67,15.628-29.01,34.843-29.01
	l518.503-0.423h148.761c23.366,0,48.272-22.512,48.272-45.821c0-23.347-24.906-42.271-48.272-42.271
	c-6.123,0-11.908,1.353-17.093,3.719c-1.39,0.846-2.836,1.644-4.357,2.329c-0.413,0.244-0.883,0.413-1.296,0.714
	c-0.057-0.084-0.094-0.216-0.132-0.301c-3.644,1.353-7.476,2.16-11.532,2.16c-18.614,0-33.697-15.082-33.697-33.696
	c0-15.628,10.688-28.672,25.132-32.476c13.204-5.832,27.611-9.335,42.976-9.335c60.312,0,109.166,48.854,109.166,109.156
	C904.749,532.604,855.895,577.89,795.583,577.89L795.583,577.89z M748.043,848.421c-15.364,0-29.809-3.531-42.994-9.316
	c-14.481-3.851-25.169-16.905-25.169-32.532c0-18.558,15.083-33.697,33.696-33.697c4.058,0,7.908,0.864,11.533,2.217
	c0.037-0.132,0.094-0.226,0.132-0.301c0.469,0.244,0.883,0.451,1.352,0.714c1.521,0.639,2.912,1.484,4.302,2.329
	c5.24,2.367,11.025,7.288,17.148,7.288c23.348,0,51.897-21.3,51.897-44.628c0-23.348-28.55-48.272-51.897-48.272H599.226
	l-326.034,0.77c-19.252,0-34.823-10.349-34.823-29.02c0-18.651,15.571-30.222,34.823-30.222h467.508c0.883,0,1.69,0.207,2.479,0.244
	c1.652-0.075,3.212-0.244,4.864-0.244c60.256,0,111.515,45.268,111.515,105.522C859.558,799.528,808.299,848.421,748.043,848.421
	L748.043,848.421z"/>
</svg>
