<?xml version="1.0" encoding="utf-8"?>
<!-- Generator: Adobe Illustrator 16.0.0, SVG Export Plug-In . SVG Version: 6.00 Build 0)  -->
<!DOCTYPE svg PUBLIC "-//W3C//DTD SVG 1.1//EN" "http://www.w3.org/Graphics/SVG/1.1/DTD/svg11.dtd">
<svg version="1.1" id="Layer_1" xmlns="http://www.w3.org/2000/svg" xmlns:xlink="http://www.w3.org/1999/xlink" x="0px" y="0px"
	 width="1000px" height="1000px" viewBox="0 0 1000 1000" enable-background="new 0 0 1000 1000" xml:space="preserve">
<path fill="#040000" d="M896.838,246.222H100.193c-23.135,0-41.891-18.713-41.891-41.87V120.43
	c0-23.157,18.756-41.869,41.891-41.869h796.645c23.138,0,42.016,18.711,42.016,41.869v83.922
	C938.854,227.509,919.976,246.222,896.838,246.222L896.838,246.222z M896.838,246.222H100.193c-23.135,0-41.891-18.713-41.891-41.87
	V120.43c0-23.157,18.756-41.869,41.891-41.869h796.645c23.138,0,42.016,18.711,42.016,41.869v83.922
	C938.854,227.509,919.976,246.222,896.838,246.222L896.838,246.222z M896.838,246.222H100.193c-23.135,0-41.891-18.713-41.891-41.87
	V120.43c0-23.157,18.756-41.869,41.891-41.869h796.645c23.138,0,42.016,18.711,42.016,41.869v83.922
	C938.854,227.509,919.976,246.222,896.838,246.222L896.838,246.222z M896.838,539.693H100.193
	c-23.135,0-41.891-18.721-41.891-41.885v-83.921c0-23.159,18.756-41.87,41.891-41.87h796.645c23.138,0,42.016,18.711,42.016,41.87
	v83.921C938.854,520.973,919.976,539.693,896.838,539.693L896.838,539.693z M439.982,833.322H100.193
	c-23.135,0-41.891-18.878-41.891-42.037v-83.759c0-23.17,18.756-42.048,41.891-42.048h280.331c23.135,0,57.445,11.029,57.445,34.187
	l44.026,91.62C481.995,814.444,463.117,833.322,439.982,833.322L439.982,833.322z M927.591,728.383L764.738,906.221
	c-14.985,16.433-39.312,16.433-54.298,0L547.59,728.383c-14.987-16.432-14.987-42.871,0-59.325h380.001
	C942.576,685.512,942.576,711.951,927.591,728.383L927.591,728.383z"/>
</svg>
