<?xml version="1.0" encoding="utf-8"?>
<!-- Generator: Adobe Illustrator 16.0.0, SVG Export Plug-In . SVG Version: 6.00 Build 0)  -->
<!DOCTYPE svg PUBLIC "-//W3C//DTD SVG 1.1//EN" "http://www.w3.org/Graphics/SVG/1.1/DTD/svg11.dtd">
<svg version="1.1" id="Layer_1" xmlns="http://www.w3.org/2000/svg" xmlns:xlink="http://www.w3.org/1999/xlink" x="0px" y="0px"
	 width="1000px" height="1000px" viewBox="0 0 1000 1000" enable-background="new 0 0 1000 1000" xml:space="preserve">
<path fill="#060606" d="M756.793,770.359c-14.833,0-40.213,0-73.566,0c0.043-1.351,0.171-2.701,0.171-4.095
	c0-19.913-3.986-41.606-11.275-58.841c38.37,0.086,68.166,0.193,84.671,0.193c69.537,0,103.963-54.982,103.963-124.477
	c0-69.537-56.375-124.53-125.87-124.53c-9.646,0-18.949,1.157-27.909,3.183c2.937-13.59,4.631-27.662,4.631-42.121
	c0-108.817-88.187-196.95-196.962-196.95c-102.977,0-187.358,79.033-196.083,179.694c-7.706-1.157-15.519-1.972-23.568-1.972
	c-85.152,0-154.208,67.661-154.208,152.814c0,85.143,47.084,153.479,132.236,153.479c16.967,0,45.111,0.107,83.899,0.235
	c-7.566,17.557-11.757,38.949-11.757,59.291c0,1.394,0.149,2.744,0.192,4.095c-33.3,0-56.911,0-72.335,0
	c-119.128,0-193.777-97.918-193.777-217.101c0-108.914,80.77-197.347,185.632-211.987C300.396,237.319,398.7,162.53,514.646,162.53
	c138.121,0,251.365,106.117,262.983,241.236c82.013,19.324,143.126,91.423,143.126,179.374
	C920.755,685.774,859.448,770.359,756.793,770.359L756.793,770.359z M515.278,838.696c-12.872,0-23.322-10.461-23.322-23.322
	V657.973c0-12.926,10.45-23.322,23.322-23.322c12.925,0,23.364,10.396,23.364,23.322v157.401
	C538.643,828.235,528.203,838.696,515.278,838.696L515.278,838.696z M603.657,787.701c-6.452,11.125-20.707,14.94-31.854,8.531
	l-136.331-78.69c-11.179-6.452-14.983-20.729-8.531-31.896c6.409-11.146,20.675-15.005,31.854-8.531l136.331,78.69
	C606.272,762.257,610.131,776.533,603.657,787.701L603.657,787.701z M595.126,717.542l-136.331,78.69
	c-11.179,6.409-25.444,2.594-31.854-8.531c-6.452-11.168-2.647-25.444,8.531-31.896l136.288-78.69
	c11.189-6.474,25.444-2.658,31.896,8.531C610.131,696.813,606.272,711.09,595.126,717.542L595.126,717.542z"/>
</svg>
