<?xml version="1.0" encoding="utf-8"?>
<!-- Generator: Adobe Illustrator 16.0.0, SVG Export Plug-In . SVG Version: 6.00 Build 0)  -->
<!DOCTYPE svg PUBLIC "-//W3C//DTD SVG 1.1//EN" "http://www.w3.org/Graphics/SVG/1.1/DTD/svg11.dtd">
<svg version="1.1" id="Layer_1" xmlns="http://www.w3.org/2000/svg" xmlns:xlink="http://www.w3.org/1999/xlink" x="0px" y="0px"
	 width="1000px" height="1000px" viewBox="0 0 1000 1000" enable-background="new 0 0 1000 1000" xml:space="preserve">
<path fill-rule="evenodd" clip-rule="evenodd" fill="#070404" d="M860.231,194.671c-49.719-54.909-120.471-86.564-193.828-86.564
	c-60.141,0-116.928,20.114-164.414,56.03c-47.852-37.603-105.001-58.453-165.536-58.453c-73.902,0-144.865,32.402-194.948,88.987
	c-50.83,57.343-77.82,134.626-77.82,223.241c0,252.877,231.99,376.146,331.059,428.834c9.129,4.835,19.923,10.439,26.991,14.539
	c20.296,21.761,48.961,34.806,80.062,34.806c0.564,0,1.12,0,1.676,0c31.665-0.556,60.33-14.723,80.062-37.26
	c7.633-4.452,19.396-10.984,29.412-16.558c105.771-59.021,325.871-181.904,325.871-425.632
	C938.818,328.017,911.615,251.288,860.231,194.671z M501.615,786.768c-9.683-32.958-328.642-119.148-328.642-368.855
	c0-230.117,243.167-276.301,328.077-78.001c81.182-190.464,328.455-153.984,328.455,76.73
	C829.506,658.875,510.36,752.537,501.615,786.768z"/>
</svg>
