<?xml version="1.0" encoding="utf-8"?>
<!-- Generator: Adobe Illustrator 16.0.0, SVG Export Plug-In . SVG Version: 6.00 Build 0)  -->
<!DOCTYPE svg PUBLIC "-//W3C//DTD SVG 1.1//EN" "http://www.w3.org/Graphics/SVG/1.1/DTD/svg11.dtd">
<svg version="1.1" id="Layer_1" xmlns="http://www.w3.org/2000/svg" xmlns:xlink="http://www.w3.org/1999/xlink" x="0px" y="0px"
	 width="1000px" height="1000px" viewBox="0 0 1000 1000" enable-background="new 0 0 1000 1000" xml:space="preserve">
<path fill-rule="evenodd" clip-rule="evenodd" fill="#080304" d="M621.874,515.928l303.28-321.047c0.156,1.998,1.1,3.795,1.1,5.792
	v598.023L621.874,515.928L621.874,515.928z M459.978,521.018L107.197,156.747c3.427-0.885,6.699-2.159,10.344-2.159h764.993
	l-342.487,366.43C501.357,566.559,459.978,521.018,459.978,521.018L459.978,521.018z M75.064,800.299
	c0-0.361-0.155-0.518-0.155-0.906V211.205L378.875,515.56L75.064,800.299L75.064,800.299z M438.979,575.818
	c54.788,50.275,122.119,4.525,122.119,4.525l21.205-22.487L883.932,845.48h-0.156H117.542c-1.254,0-2.34-0.519-3.438-0.7
	l303.979-289.832L438.979,575.818L438.979,575.818z"/>
</svg>
