<?xml version="1.0" encoding="utf-8"?>
<!-- Generator: Adobe Illustrator 16.0.0, SVG Export Plug-In . SVG Version: 6.00 Build 0)  -->
<!DOCTYPE svg PUBLIC "-//W3C//DTD SVG 1.1//EN" "http://www.w3.org/Graphics/SVG/1.1/DTD/svg11.dtd">
<svg version="1.1" id="Layer_1" xmlns="http://www.w3.org/2000/svg" xmlns:xlink="http://www.w3.org/1999/xlink" x="0px" y="0px"
	 width="1000px" height="1000px" viewBox="0 0 1000 1000" enable-background="new 0 0 1000 1000" xml:space="preserve">
<path fill-rule="evenodd" clip-rule="evenodd" fill="#070505" d="M709.961,868.288c0.55,1.647,0.957,2.729,0.957,2.729h-5.584
	c-60.918,33.98-131.091,53.434-205.899,53.434s-144.982-19.453-205.899-53.434h-6.259c0,0,0.408-1.082,1.082-3.152
	C161.19,794.695,75.533,657.754,75.533,500.539c0-234.059,189.717-423.909,423.901-423.909c234.06,0,423.901,189.85,423.901,423.909
	C923.336,657.91,837.396,795.26,709.961,868.288L709.961,868.288z M497.937,171.425c-181.826,0-329.122,147.438-329.122,329.114
	c0,118.324,62.972,221.286,156.677,279.206c23.658-48.664,57.246-104.984,97.792-140.095
	c-49.253-26.89-83.107-78.456-83.107-138.538c0-87.61,70.98-158.615,158.591-158.615c87.571,0,158.553,71.005,158.553,158.615
	c0,59.83-33.564,111.335-82.535,138.287c40.389,34.797,73.695,90.85,97.384,139.42c92.614-58.391,154.747-160.787,154.747-278.28
	C826.916,318.862,679.637,171.425,497.937,171.425L497.937,171.425z"/>
</svg>
