<?xml version="1.0" encoding="utf-8"?>
<!-- Generator: Adobe Illustrator 16.0.0, SVG Export Plug-In . SVG Version: 6.00 Build 0)  -->
<!DOCTYPE svg PUBLIC "-//W3C//DTD SVG 1.1//EN" "http://www.w3.org/Graphics/SVG/1.1/DTD/svg11.dtd">
<svg version="1.1" id="Layer_1" xmlns="http://www.w3.org/2000/svg" xmlns:xlink="http://www.w3.org/1999/xlink" x="0px" y="0px"
	 width="1000px" height="1000px" viewBox="0 0 1000 1000" enable-background="new 0 0 1000 1000" xml:space="preserve">
<path fill-rule="evenodd" clip-rule="evenodd" fill="#020202" d="M881.492,288.976c-7.734-7.574-16.486-14.104-26.293-19.064
	c0,0-239.339-123.098-259.572-133.596c-27.313-21.111-60.792-32.602-95.998-32.602c-34.684,0-68.003,11.313-95.289,32.273
	c-19.064,9.772-260.268,133.924-260.268,133.924c-9.47,4.811-18.042,11.162-25.594,18.524
	c-30.045,29.536-46.705,69.207-46.705,111.793c0,41.354,16.814,82.071,46.014,111.244c7.729,7.557,16.482,14.077,26.285,19.074
	c0,0,16.465,8.469,41.022,21.093v136.165c0,32.965,15.278,62.315,39.131,81.566c54.258,77.233,159.518,126.862,276.786,126.862
	c117.597,0,223.002-49.779,277.113-127.376c23.335-19.242,38.466-48.425,38.466-81.053v-31.937l-0.362,7.37l0.69-14.768
	c0,0-0.186-3.588-0.328-7.371v-90.7c23.247-11.95,38.609-19.853,38.609-19.853c9.957-5.174,19.064-11.854,26.799-19.765
	c29.35-29.688,45.473-69.021,45.473-110.554C927.471,358.148,910.993,318.663,881.492,288.976z M711.681,656.346v31.459h-7.813
	c-25.213,59.817-106.434,103.52-202.856,103.52c-96.432,0-177.652-43.702-202.865-103.52H290v-82.213
	c54.329,27.942,105.056,54.015,113.827,58.515c27.286,20.784,61.305,32.629,95.803,32.629c35.206,0,68.508-11.518,95.635-32.451
	c8.699-4.501,60.994-31.415,116.417-59.924v36.252c0.213,2.604,0.337,5.227,0.337,7.858
	C712.018,651.119,711.894,653.741,711.681,656.346z M807.289,437.313L536.713,576.561c-20.43,20.421-53.748,20.421-74.168,0
	L191.956,437.313c-20.424-20.43-20.424-53.749,0-74.169l270.589-139.248c20.42-20.429,53.739-20.429,74.168,0l270.576,139.248
	C827.744,383.564,827.744,416.884,807.289,437.313z"/>
</svg>
