<?xml version="1.0" encoding="utf-8"?>
<!-- Generator: Adobe Illustrator 16.0.0, SVG Export Plug-In . SVG Version: 6.00 Build 0)  -->
<!DOCTYPE svg PUBLIC "-//W3C//DTD SVG 1.1//EN" "http://www.w3.org/Graphics/SVG/1.1/DTD/svg11.dtd">
<svg version="1.1" id="Layer_1" xmlns="http://www.w3.org/2000/svg" xmlns:xlink="http://www.w3.org/1999/xlink" x="0px" y="0px"
	 width="1000px" height="1000px" viewBox="0 0 1000 1000" enable-background="new 0 0 1000 1000" xml:space="preserve">
<path fill="#020202" d="M728.271,700.183c-16.631,0-48.563,0-87.854,0c-5.238-17.671-14.386-40.581-25.321-61.328
	c50.746,0.25,93.052,0.374,113.176,0.374c67.544,0,122.322-54.758,122.322-122.364c0-67.522-54.778-122.302-122.322-122.302
	c-9.355,0-18.419,1.123-27.15,3.088c2.91-13.181,4.49-26.87,4.49-40.944c0-105.712-85.671-191.384-191.342-191.384
	c-100.109,0-182.091,76.795-190.594,174.659c-7.474-1.175-15.093-1.913-22.899-1.913c-82.72,0-149.837,67.065-149.837,149.837
	c0,82.72,67.117,149.785,149.837,149.785c22.203,0,70.018,0.188,126.241,0.416c-11.174,21.038-20.477,44.218-25.757,62.076
	c-44.676,0-81.504,0-100.484,0c-115.764,0-209.657-96.503-209.657-212.277c0-105.857,78.51-193.119,180.396-207.37
	c34.541-101.004,130.025-173.724,242.754-173.724c134.214,0,244.25,103.145,255.56,234.428
	c79.684,18.835,139.037,90.203,139.037,175.625C908.865,616.652,828.017,700.183,728.271,700.183L728.271,700.183z M520.807,763.755
	c-28.928,0-52.43-23.471-52.43-52.513c0-28.918,52.43-97.376,52.43-97.376s52.44,68.458,52.44,97.376
	C573.247,740.284,549.776,763.755,520.807,763.755L520.807,763.755z M318.862,894.31c-28.97,0-52.44-23.449-52.44-52.471
	c0-28.897,52.44-97.396,52.44-97.396s52.44,68.499,52.44,97.396C371.303,870.86,347.79,894.31,318.862,894.31L318.862,894.31z
	 M745.858,894.31c-28.98,0-52.451-23.449-52.451-52.471c0-28.897,52.451-97.396,52.451-97.396s52.43,68.499,52.43,97.396
	C798.288,870.86,774.838,894.31,745.858,894.31L745.858,894.31z"/>
</svg>
