<?xml version="1.0" encoding="utf-8"?>
<!-- Generator: Adobe Illustrator 16.0.0, SVG Export Plug-In . SVG Version: 6.00 Build 0)  -->
<!DOCTYPE svg PUBLIC "-//W3C//DTD SVG 1.1//EN" "http://www.w3.org/Graphics/SVG/1.1/DTD/svg11.dtd">
<svg version="1.1" id="Layer_1" xmlns="http://www.w3.org/2000/svg" xmlns:xlink="http://www.w3.org/1999/xlink" x="0px" y="0px"
	 width="1000px" height="1000px" viewBox="0 0 1000 1000" enable-background="new 0 0 1000 1000" xml:space="preserve">
<path fill="#060606" d="M846.76,548.296c-22.439-36.706-62.785-55.923-108.934-55.923c-9.774,0-19.216,1.217-28.324,3.275
	c3.036-13.788,4.721-28.096,4.721-42.778c0-110.39-89.488-199.878-199.836-199.878c-104.504,0-190.104,80.234-198.983,182.388
	c-7.819-1.165-15.764-2.007-23.896-2.007c-73.953,0-135.761,46.002-152.086,114.923h-63.68
	c15.618-93.7,90.694-161.768,185.194-175.005c36.041-105.429,135.782-182.71,253.45-182.71
	c140.17,0,255.051,109.027,266.822,246.161c61.392,14.443,111.096,53.489,133.016,111.554H846.76L846.76,548.296z M897.92,640.113
	H101.967c-16.222,0-29.365-9.483-29.365-23.792c0-14.308,13.144-23.146,29.365-23.146H897.92c16.18,0,29.303,8.839,29.303,23.146
	C927.223,630.63,914.1,640.113,897.92,640.113L897.92,640.113z M873.608,725.442H146.846c-16.222,0-29.344-8.776-29.344-23.085
	c0-14.308,13.122-23.854,29.344-23.854h726.763c16.159,0,29.303,9.546,29.303,23.854
	C902.911,716.666,889.768,725.442,873.608,725.442L873.608,725.442z M785.098,810.501H237.187c-16.221,0-29.364-8.839-29.364-23.146
	c0-14.309,13.144-22.398,29.364-22.398h547.911c16.222,0,29.365,8.09,29.365,22.398
	C814.463,801.662,801.319,810.501,785.098,810.501L785.098,810.501z"/>
</svg>
