<?xml version="1.0" encoding="utf-8"?>
<!-- Generator: Adobe Illustrator 16.0.0, SVG Export Plug-In . SVG Version: 6.00 Build 0)  -->
<!DOCTYPE svg PUBLIC "-//W3C//DTD SVG 1.1//EN" "http://www.w3.org/Graphics/SVG/1.1/DTD/svg11.dtd">
<svg version="1.1" id="Layer_1" xmlns="http://www.w3.org/2000/svg" xmlns:xlink="http://www.w3.org/1999/xlink" x="0px" y="0px"
	 width="1000px" height="1000px" viewBox="0 0 1000 1000" enable-background="new 0 0 1000 1000" xml:space="preserve">
<path fill="#050000" d="M743.867,731.864C598.564,939.009,497.314,930.467,497.314,930.467
	c-124.678-0.921-237.455-184.493-237.455-184.493c-109.058-81.372-55.912-177.983-55.912-177.983
	c0-103.489,166.106-73.949,166.106-73.949l308.96-1.115c72.652,0,102.378,60.38,102.378,60.38
	C845.126,612.412,743.867,731.864,743.867,731.864L743.867,731.864z M493.429,448.32c-107.589,0-194.746-87.123-194.746-194.714
	c0-107.376,87.157-194.502,194.746-194.502c107.562,0,194.69,87.125,194.69,194.502C688.119,361.198,600.991,448.32,493.429,448.32
	L493.429,448.32z"/>
</svg>
