<?xml version="1.0" encoding="utf-8"?>
<!-- Generator: Adobe Illustrator 16.0.0, SVG Export Plug-In . SVG Version: 6.00 Build 0)  -->
<!DOCTYPE svg PUBLIC "-//W3C//DTD SVG 1.1//EN" "http://www.w3.org/Graphics/SVG/1.1/DTD/svg11.dtd">
<svg version="1.1" id="Layer_1" xmlns="http://www.w3.org/2000/svg" xmlns:xlink="http://www.w3.org/1999/xlink" x="0px" y="0px"
	 width="1000px" height="1000px" viewBox="0 0 1000 1000" enable-background="new 0 0 1000 1000" xml:space="preserve">
<path fill="#080203" d="M922.647,498.55c0-81.791-39.3-144.126-103.224-172.222c0.536-6.479,0.899-12.98,0.899-19.453
	c0-81.402-43.782-154.188-120.159-199.408c-5.934-3.614-12.249-6.479-18.909-8.83c-57.452-20.354-106.3-30.266-149.689-30.266
	c-71.882,0-128.616,28.308-162.676,76.731c-17.465-6.289-35.475-9.722-54.209-9.722c-140.148,0-241.565,182.125-241.565,304.959
	c0,58.905,24.33,107.747,63.958,136.535c-8.283,23.25-10.808,45.229-10.808,63.236c0,173.122,135.272,285.176,344.41,285.176
	c0,0,8.823-0.363,16.565-0.567c1.626,0.204,3.25,0.204,3.25,0.204c0.72,0,5.052,0.159,6.109,0.159
	c94.768,0,168.066-48.97,197.786-126.813c5.066,0.363,10.087,0.545,15.152,0.545c52.781,0,179.047-25.206,210.219-258.106
	l-0.173,0.693C921.558,527.181,922.647,512.787,922.647,498.55z M814.91,526.645c-27.749,207.331-135.816,194.894-202.455,103.744
	c-12.784-17.534-23.975-35.103-33.604-51.65c-7.528,5.847-16.334,10.068-25.885,12.178c26.943,46.181,52.261,99.829,49.938,135.318
	c-7.021,103.381-114.583,92.76-114.583,92.76s-256.323,18.908-256.323-178.883c0-76.565,99.554-112.062,175.654-128.026
	c-4.341-6.858-7.647-14.419-9.588-22.5c-6.858-1.831-13.203-4.798-18.933-8.585c-37.7,19.421-80.852,22.759-156.32,18.063
	c-110.428-6.653,10.259-292.168,110.603-254.523c43.026,16.059,73.938,66.771,88.711,117.254
	c15.177,1.649,28.632,8.39,38.789,18.459c-34.226-100.469-61.476-268.997,185.206-181.975
	c97.447,57.791,78.556,164.25,18.91,202.793c-19.192,12.5-40.249,21.631-60.925,28.316c0.332,3.061,0.458,6.17,0.238,9.351
	c-0.285,4.774-1.248,9.328-2.701,13.66C691.121,412.926,835.617,371.304,814.91,526.645z"/>
</svg>
