<?xml version="1.0" encoding="utf-8"?>
<!-- Generator: Adobe Illustrator 16.0.0, SVG Export Plug-In . SVG Version: 6.00 Build 0)  -->
<!DOCTYPE svg PUBLIC "-//W3C//DTD SVG 1.1//EN" "http://www.w3.org/Graphics/SVG/1.1/DTD/svg11.dtd">
<svg version="1.1" id="Layer_1" xmlns="http://www.w3.org/2000/svg" xmlns:xlink="http://www.w3.org/1999/xlink" x="0px" y="0px"
	 width="1000px" height="1000px" viewBox="0 0 1000 1000" enable-background="new 0 0 1000 1000" xml:space="preserve">
<path fill="#060606" d="M764.319,694.898v-60.461c61.647-8.262,96.807-60.871,96.807-124.783c0-69.585-56.405-125.98-126.013-125.98
	c-9.577,0-18.938,1.165-27.911,3.192c2.955-13.578,4.615-27.686,4.615-42.181c0-108.918-88.265-197.172-197.14-197.172
	c-103.041,0-187.521,79.141-196.245,179.905c-7.766-1.165-15.574-1.941-23.619-1.941c-85.256,0-154.356,69.057-154.356,154.302
	c0,75.259,44.229,137.834,115.465,151.487v62.273C150.552,679.217,78.875,589.141,78.875,479.779
	c0-109.015,80.834-198.865,185.772-213.608c35.602-103.969,133.993-178.893,250.03-178.893c138.297,0,251.626,106.201,263.274,241.5
	c82.096,19.348,143.247,92.913,143.247,180.876C921.199,606.741,859.229,686.356,764.319,694.898L764.319,694.898z M366.199,705.317
	c-23.964,0-43.409-19.457-43.409-43.399V590.65c0-23.965,19.445-43.421,43.409-43.421c23.997,0,43.399,19.456,43.399,43.421v71.268
	C409.599,685.86,390.196,705.317,366.199,705.317L366.199,705.317z M366.534,883.572c-24.148,0-43.744-19.585-43.744-43.787v-71.807
	c0-24.202,19.596-43.788,43.744-43.788c24.201,0,43.744,19.586,43.744,43.788v71.807
	C410.278,863.987,390.735,883.572,366.534,883.572L366.534,883.572z M513.222,772.249c-19.974,0-36.173-16.199-36.173-36.173
	v-59.361c0-19.974,16.199-36.173,36.173-36.173c19.931,0,36.13,16.199,36.13,36.173v59.361
	C549.352,756.05,533.152,772.249,513.222,772.249L513.222,772.249z M511.237,914.418c-18.917,0-34.188-15.271-34.188-34.167v-56.082
	c0-18.853,15.271-34.168,34.188-34.168c18.874,0,34.146,15.315,34.146,34.168v56.082
	C545.383,899.146,530.111,914.418,511.237,914.418L511.237,914.418z M653.319,703.483c-23.813,0-43.054-19.305-43.054-43.075
	v-70.707c0-23.792,19.24-43.098,43.054-43.098c23.771,0,43.055,19.306,43.055,43.098v70.707
	C696.374,684.179,677.09,703.483,653.319,703.483L653.319,703.483z M653.794,882.904c-24.029,0-43.528-19.543-43.528-43.594v-71.526
	c0-24.115,19.499-43.594,43.528-43.594c24.072,0,43.615,19.479,43.615,43.594v71.526
	C697.409,863.361,677.866,882.904,653.794,882.904L653.794,882.904z"/>
</svg>
