<?xml version="1.0" encoding="utf-8"?>
<!-- Generator: Adobe Illustrator 15.0.0, SVG Export Plug-In . SVG Version: 6.00 Build 0)  -->
<!DOCTYPE svg PUBLIC "-//W3C//DTD SVG 1.1//EN" "http://www.w3.org/Graphics/SVG/1.1/DTD/svg11.dtd">
<svg version="1.1" id="图层_1" xmlns="http://www.w3.org/2000/svg" xmlns:xlink="http://www.w3.org/1999/xlink" x="0px" y="0px"
	 width="1000px" height="1000px" viewBox="0 0 1000 1000" enable-background="new 0 0 1000 1000" xml:space="preserve">
<path fill-rule="evenodd" clip-rule="evenodd" fill="#040404" d="M876.449,474.006H660.95c-29.779,0-53.875-24.202-53.875-53.954
	c0-29.7,24.096-53.875,53.875-53.875h73.92c-49.192-95.57-147.894-161.467-263.035-161.467
	c-164.203,0-297.233,132.767-297.233,296.549c0,163.992,133.03,296.785,297.233,296.785c135.45,0,248.356-90.966,284.186-214.71
	h132.793c-39.67,182.091-205.819,318.83-405.009,318.83c-228.705,0-414.111-180.25-414.111-402.642
	c0-222.313,185.406-402.615,414.111-402.615c141.422,0,264.482,70.105,338.823,175.514v-67.791
	c0-29.779,24.044-53.875,53.822-53.875c29.727,0,53.875,24.096,53.875,53.875v215.421
	C930.324,449.805,906.176,474.006,876.449,474.006L876.449,474.006z"/>
</svg>
