<?xml version="1.0" encoding="utf-8"?>
<!-- Generator: Adobe Illustrator 16.0.0, SVG Export Plug-In . SVG Version: 6.00 Build 0)  -->
<!DOCTYPE svg PUBLIC "-//W3C//DTD SVG 1.1//EN" "http://www.w3.org/Graphics/SVG/1.1/DTD/svg11.dtd">
<svg version="1.1" id="Layer_1" xmlns="http://www.w3.org/2000/svg" xmlns:xlink="http://www.w3.org/1999/xlink" x="0px" y="0px"
	 width="1000px" height="1000px" viewBox="0 0 1000 1000" enable-background="new 0 0 1000 1000" xml:space="preserve">
<path fill-rule="evenodd" clip-rule="evenodd" fill="#070505" d="M152.02,233.375l53.356-53.356h219.018
	c-2.969-8.598-5.429-17.315-5.429-26.796c0-44.075,35.855-80.108,80.103-80.108c44.266,0,80.135,36.033,80.135,80.108
	c0,9.481-2.459,18.198-5.429,26.796h219l53.339,53.356v53.493H152.02V233.375L152.02,233.375z M792.774,767.412
	c-16.614,68.358-53.356,160.206-135.567,160.206H340.962c-82.066,0-118.791-101.794-135.586-160.206
	c-16.614-58.457-53.356-427.188-53.356-427.188h694.094C846.113,340.224,809.552,698.991,792.774,767.412L792.774,767.412z
	 M258.896,446.901l53.356,320.511c0,0,0,53.303,53.338,53.303c53.375,0,221.828,0,266.933,0c45.305,0,53.538-53.303,53.538-53.303
	l53.356-320.511H258.896L258.896,446.901z"/>
</svg>
