<?xml version="1.0" encoding="utf-8"?>
<!-- Generator: Adobe Illustrator 16.0.0, SVG Export Plug-In . SVG Version: 6.00 Build 0)  -->
<!DOCTYPE svg PUBLIC "-//W3C//DTD SVG 1.1//EN" "http://www.w3.org/Graphics/SVG/1.1/DTD/svg11.dtd">
<svg version="1.1" id="Layer_1" xmlns="http://www.w3.org/2000/svg" xmlns:xlink="http://www.w3.org/1999/xlink" x="0px" y="0px"
	 width="1000px" height="1000px" viewBox="0 0 1000 1000" enable-background="new 0 0 1000 1000" xml:space="preserve">
<path fill="#060606" d="M399.105,428.212c-25.844,0-46.814-20.955-46.814-46.832c0-25.86,20.971-46.814,46.814-46.814
	s46.798,20.954,46.798,46.814C445.903,407.257,424.949,428.212,399.105,428.212L399.105,428.212z M682.928,289.774
	c-25.844,0-46.797-20.921-46.797-46.815c0-25.844,20.953-46.798,46.797-46.798s46.816,20.954,46.816,46.798
	C729.744,268.853,708.771,289.774,682.928,289.774L682.928,289.774z M855.859,714.852c-25.844,0-46.799-20.955-46.799-46.85
	c0-25.844,20.955-46.797,46.799-46.797c25.859,0,46.814,20.953,46.814,46.797C902.674,693.896,881.719,714.852,855.859,714.852
	L855.859,714.852z M752.975,800.322c-25.844,0-46.816-20.922-46.816-46.816c0-25.842,20.973-46.797,46.816-46.797
	c25.842,0,46.797,20.955,46.797,46.797C799.771,779.4,778.816,800.322,752.975,800.322L752.975,800.322z M554.148,539.072
	c-1.432,0-2.883-0.152-4.314-0.221c-0.725,0.068-1.451,0.221-2.209,0.221H126.678c-17.061,0-30.918-15.914-30.918-32.469
	c0-16.573,13.857-33.701,30.918-33.701l295.506,0.675h131.964c20.686,0,37.477-13.065,37.477-33.716
	c0-20.702-16.791-37.493-37.477-37.493c-5.461,0-10.568,1.214-15.188,3.305c-1.266,0.725-2.514,1.467-3.844,2.04
	c-0.406,0.235-0.793,0.421-1.164,0.641c-0.051-0.068-0.084-0.152-0.152-0.253c-3.186,1.214-6.592,1.922-10.199,1.922
	c-16.52,0-29.906-13.369-29.906-29.856c0-13.874,9.525-25.438,22.32-28.811c11.684-5.158,24.496-8.294,38.133-8.294
	c53.441,0,96.75,43.359,96.75,96.8C650.898,493.251,607.59,539.072,554.148,539.072L554.148,539.072z M759.145,594.299
	c-1.434,0-2.832-0.152-4.283-0.236c-0.758,0.084-1.432,0.236-2.191,0.236h-89.027c-17.061,0-30.934-12.205-30.934-28.76
	c0-16.572,13.873-27.529,30.934-27.529l2.494,0.691h93.008c20.701,0,37.492-16.758,37.492-37.443
	c0-20.701-16.791-37.492-37.492-37.492c-5.412,0-10.57,1.214-15.189,3.305c-1.215,0.758-2.461,1.517-3.826,2.039
	c-0.389,0.236-0.811,0.422-1.182,0.691c-0.033-0.118-0.084-0.202-0.117-0.27c-3.221,1.18-6.625,1.938-10.232,1.938
	c-16.488,0-29.855-13.385-29.855-29.906c0-13.841,9.473-25.438,22.285-28.811c11.699-5.158,24.479-8.261,38.117-8.261
	c53.439,0,96.766,43.326,96.766,96.765C855.91,554.682,812.584,594.299,759.145,594.299L759.145,594.299z M554.148,805.127
	c-13.637,0-26.449-3.104-38.133-8.262c-12.795-3.371-22.32-14.969-22.32-28.793c0-16.537,13.386-29.906,29.906-29.906
	c3.607,0,7.014,0.758,10.199,1.922c0.068-0.068,0.102-0.152,0.152-0.254c0.371,0.254,0.758,0.455,1.164,0.641
	c1.33,0.574,2.578,1.332,3.844,2.092c4.619,2.072,9.727,3.287,15.188,3.287c20.686,0,37.477-16.791,37.477-37.477
	c0-20.701-16.791-31.271-37.477-31.271l-131.964,1.248l-175.848-0.574c-17.061,0-30.9-15.914-30.9-32.434
	c0-16.555,13.84-33.734,30.9-33.734h301.289c0.758,0,1.484,0.152,2.209,0.186c1.432-0.033,2.883-0.186,4.314-0.186
	c53.441,0,96.75,43.326,96.75,96.766C650.898,761.818,607.59,805.127,554.148,805.127L554.148,805.127z"/>
</svg>
