<?xml version="1.0" encoding="utf-8"?>
<!-- Generator: Adobe Illustrator 16.0.0, SVG Export Plug-In . SVG Version: 6.00 Build 0)  -->
<!DOCTYPE svg PUBLIC "-//W3C//DTD SVG 1.1//EN" "http://www.w3.org/Graphics/SVG/1.1/DTD/svg11.dtd">
<svg version="1.1" id="Layer_1" xmlns="http://www.w3.org/2000/svg" xmlns:xlink="http://www.w3.org/1999/xlink" x="0px" y="0px"
	 width="1000px" height="1000px" viewBox="0 0 1000 1000" enable-background="new 0 0 1000 1000" xml:space="preserve">
<g>
	<path fill-rule="evenodd" clip-rule="evenodd" fill="#020101" d="M331.997,216.867h267.67v133.834h100.375V216.867V116.49H599.667
		h-267.67H231.62v100.377v238.002c-10.717-2.467-21.777-4.199-33.361-4.199c-73.909,0-133.835,53.342-133.835,119.049
		c0,65.807,59.926,119.133,133.835,119.133c73.813,0,133.738-53.326,133.738-119.133c0-6.273-1.029-12.285-2.076-18.264h2.076
		V216.867z"/>
	<path fill-rule="evenodd" clip-rule="evenodd" fill="#020101" d="M856.39,382.135h-409.82c-43.801,0-79.383,35.484-79.383,79.398
		v343.803c0,43.816,35.582,79.301,79.383,79.301h409.82c43.785,0,79.27-35.484,79.27-79.301V461.533
		C935.659,417.619,900.175,382.135,856.39,382.135z M836.099,704.24c0,43.816-35.484,79.301-79.268,79.301h-154.42l203.791-135.043
		L597.935,515.152v268.389h-53.031c-43.898,0-79.383-35.484-79.383-79.301V564.033c0-43.816,35.484-79.301,79.383-79.301h211.928
		c43.783,0,79.268,35.484,79.268,79.301V704.24z"/>
</g>
</svg>
