<?xml version="1.0" encoding="utf-8"?>
<!-- Generator: Adobe Illustrator 16.0.0, SVG Export Plug-In . SVG Version: 6.00 Build 0)  -->
<!DOCTYPE svg PUBLIC "-//W3C//DTD SVG 1.1//EN" "http://www.w3.org/Graphics/SVG/1.1/DTD/svg11.dtd">
<svg version="1.1" id="Layer_1" xmlns="http://www.w3.org/2000/svg" xmlns:xlink="http://www.w3.org/1999/xlink" x="0px" y="0px"
	 width="1000px" height="1000px" viewBox="0 0 1000 1000" enable-background="new 0 0 1000 1000" xml:space="preserve">
<path fill-rule="evenodd" clip-rule="evenodd" fill="#020101" d="M901.525,907.789c-32.744,32.847-85.371,32.847-118.115,0
	L599.647,723.691c-133.097,80.546-308.335,64.328-423.252-50.174c-134.746-135.136-134.746-353.657,0-488.818
	c135.161-134.773,353.682-134.773,488.843,0c114.09,114.503,130.256,287.703,51.39,420.437l184.897,184.95
	C933.91,822.441,933.91,875.459,901.525,907.789L901.525,907.789z M577.387,272.525c-86.563-86.637-226.578-86.637-313.191,0
	c-86.613,86.563-86.613,226.629,0,313.192c86.613,86.612,226.629,86.612,313.191,0C664.001,499.154,664.001,359.088,577.387,272.525
	L577.387,272.525z"/>
</svg>
