<?xml version="1.0" encoding="utf-8"?>
<!-- Generator: Adobe Illustrator 16.0.0, SVG Export Plug-In . SVG Version: 6.00 Build 0)  -->
<!DOCTYPE svg PUBLIC "-//W3C//DTD SVG 1.1//EN" "http://www.w3.org/Graphics/SVG/1.1/DTD/svg11.dtd">
<svg version="1.1" id="Layer_1" xmlns="http://www.w3.org/2000/svg" xmlns:xlink="http://www.w3.org/1999/xlink" x="0px" y="0px"
	 width="1000px" height="1000px" viewBox="0 0 1000 1000" enable-background="new 0 0 1000 1000" xml:space="preserve">
<path fill-rule="evenodd" clip-rule="evenodd" fill="#050000" d="M887.968,792.245c39.062,39.045,49.76,91.472,23.988,117.244
	c-25.771,25.756-78.197,14.847-117.005-23.988l-90.47-87.055c-2.861-2.906-4.644-6.473-7.253-9.59
	C543.53,899.284,328.744,886.4,190.357,748.013c-153.893-153.895-153.893-403.322,0-557.006
	c153.91-153.932,403.368-153.932,557.008,0C885.75,329.13,898.666,543.879,788.269,697.818c3.117,2.667,6.683,4.42,9.559,7.313
	L887.968,792.245L887.968,792.245z M649.193,281.162c-103.701-103.737-270.51-105.259-372.426-3.567
	c-101.933,101.955-100.404,268.742,3.55,372.487c103.701,103.924,270.524,105.512,372.442,3.552
	C754.752,551.67,753.164,384.861,649.193,281.162L649.193,281.162z"/>
</svg>
