<?xml version="1.0" encoding="utf-8"?>
<!-- Generator: Adobe Illustrator 15.0.0, SVG Export Plug-In . SVG Version: 6.00 Build 0)  -->
<!DOCTYPE svg PUBLIC "-//W3C//DTD SVG 1.1//EN" "http://www.w3.org/Graphics/SVG/1.1/DTD/svg11.dtd">
<svg version="1.1" id="图层_1" xmlns="http://www.w3.org/2000/svg" xmlns:xlink="http://www.w3.org/1999/xlink" x="0px" y="0px"
	 width="1000px" height="1000px" viewBox="0 0 1000 1000" enable-background="new 0 0 1000 1000" xml:space="preserve">
<path fill-rule="evenodd" clip-rule="evenodd" fill="#454545" d="M878.146,553.975h-53.974c-1.002,0-1.899-0.422-2.901-0.527
	c-8.126,48.329-26.855,95.18-56.823,136.649c2.058,1.478,4.432,2.322,6.331,4.222l38.198,38.198
	c21.104,21.104,21.104,55.398,0,76.397c-21.104,21.209-55.293,21.209-76.396,0l-38.199-38.094c-1.899-1.899-2.69-4.432-4.273-6.542
	c-41.364,29.546-88.058,48.117-136.069,56.031v57.826c0,29.862-24.217,54.026-54.027,54.026c-29.81,0-54.026-24.164-54.026-54.026
	v-58.354c-46.482-8.02-91.671-25.747-131.796-54.132l-45.084,45.057c-21.078,20.999-55.267,20.999-76.397,0
	c-21.078-21.209-21.078-55.398,0-76.502l45.005-44.952c-29.572-41.47-48.144-88.216-55.9-136.438
	c-2.084,0.316-3.799,1.16-5.962,1.16h-54c-29.81,0-54.027-24.164-54.027-53.974c0-29.81,24.217-54,54.027-54h54
	c2.321,0,4.3,1.082,6.516,1.293c7.94-47.142,25.932-93.043,54.765-133.774l-44.424-44.424c-21.078-21.051-21.078-55.24,0-76.397
	c21.13-21.052,55.319-21.052,76.397,0l44.266,44.266c40.283-28.886,85.789-47.062,132.614-55.319V121.84
	c0-29.81,24.217-54,54.026-54c29.811,0,54.027,24.191,54.027,54v58.801c47.801,7.677,94.283,25.932,135.437,55.161l43.105-43.105
	c21.104-21.052,55.293-21.052,76.396,0c21.104,21.157,21.104,55.346,0,76.397l-42.946,43.026
	c29.123,40.889,47.22,86.976,55.134,134.434c1.108-0.053,1.899-0.554,3.008-0.554h53.974c29.81,0,54.027,24.191,54.027,54
	C932.173,529.811,907.955,553.975,878.146,553.975L878.146,553.975z M655.18,347.232c-42.63-42.63-98.504-63.761-154.43-63.444
	c-0.264,0-0.527,0.185-0.739,0.185c-0.105,0-0.185-0.105-0.264-0.105c-54.818,0.501-109.504,21.474-151.37,63.365
	c-84.654,84.733-84.654,222.043,0,306.671c40.784,40.837,93.808,61.519,147.254,63.102c1.478-0.211,2.796-0.95,4.379-0.95
	c1.953,0,3.642,0.95,5.541,1.161c54.237-0.949,108.264-21.948,149.628-63.313C739.913,569.275,739.913,431.966,655.18,347.232
	L655.18,347.232z"/>
</svg>
