<?xml version="1.0" encoding="utf-8"?>
<!-- Generator: Adobe Illustrator 16.0.0, SVG Export Plug-In . SVG Version: 6.00 Build 0)  -->
<!DOCTYPE svg PUBLIC "-//W3C//DTD SVG 1.1//EN" "http://www.w3.org/Graphics/SVG/1.1/DTD/svg11.dtd">
<svg version="1.1" id="Layer_1" xmlns="http://www.w3.org/2000/svg" xmlns:xlink="http://www.w3.org/1999/xlink" x="0px" y="0px"
	 width="1000px" height="1000px" viewBox="0 0 1000 1000" enable-background="new 0 0 1000 1000" xml:space="preserve">
<path fill="#060606" d="M886.585,477.844c-9.893-16.82-22.114-32.119-36.319-45.588c9.197-18.885,14.491-40.019,14.491-62.398
	c0-79.158-64.197-143.355-143.417-143.355c-9.912,0-19.662,1.012-29.043,2.943c-15.656-15.073-32.886-28.491-51.587-39.702
	c24.629-11.026,51.914-17.321,80.63-17.321c109.08,0,197.497,88.406,197.497,197.436
	C918.837,409.743,906.88,446.777,886.585,477.844L886.585,477.844z M707.013,763.379c-16.27,0-48.705,0-87.313,0
	c-5.13-17.331-14.103-40.55-24.853-60.906c49.809,0.204,91.298,0.327,111.063,0.327c66.261,0,120.015-52.567,120.015-118.87
	S772.17,463.915,705.909,463.915c-9.197,0-18.068,1.104-26.611,3.086c2.8-12.958,4.415-26.427,4.415-40.212
	C683.713,323.084,599.629,239,495.965,239c-98.187,0-178.652,75.356-186.971,171.387c-7.338-1.145-14.777-1.932-22.462-1.932
	c-81.182,0-146.993,68.05-146.993,149.231c0,81.202,65.812,144.786,146.993,144.786c21.787,0,68.693,0.144,123.837,0.368
	c-10.935,20.643-20.091,43.022-25.282,60.538c-43.779,0-79.936,0-98.555,0c-113.576,0-205.672-92.055-205.672-205.692
	c0-103.786,76.971-191.641,176.956-205.651c33.907-99.065,127.597-172.634,238.148-172.634
	c131.686,0,239.621,103.388,250.698,232.232C824.86,430.049,883.09,500.122,883.09,583.93
	C883.09,681.81,804.872,763.379,707.013,763.379L707.013,763.379z M502.403,828.333c-28.409,0-51.423-23.014-51.423-51.464
	c0-28.39,51.423-95.57,51.423-95.57s51.464,67.181,51.464,95.57C553.867,805.319,530.792,828.333,502.403,828.333L502.403,828.333z"
	/>
</svg>
