<?xml version="1.0" encoding="utf-8"?>
<!-- Generator: Adobe Illustrator 16.0.0, SVG Export Plug-In . SVG Version: 6.00 Build 0)  -->
<!DOCTYPE svg PUBLIC "-//W3C//DTD SVG 1.1//EN" "http://www.w3.org/Graphics/SVG/1.1/DTD/svg11.dtd">
<svg version="1.1" id="Layer_1" xmlns="http://www.w3.org/2000/svg" xmlns:xlink="http://www.w3.org/1999/xlink" x="0px" y="0px"
	 width="1000px" height="1000px" viewBox="0 0 1000 1000" enable-background="new 0 0 1000 1000" xml:space="preserve">
<path fill="#060606" d="M237.139,458.491c-28.031,0-50.809-22.718-50.809-50.799c0-28.12,22.777-50.858,50.809-50.858
	c28.121,0,50.849,22.738,50.849,50.858C287.987,435.773,265.26,458.491,237.139,458.491L237.139,458.491z M722.341,458.491
	c-28.081,0-50.799-22.718-50.799-50.799c0-28.12,22.718-50.858,50.799-50.858s50.799,22.738,50.799,50.858
	C773.14,435.773,750.422,458.491,722.341,458.491L722.341,458.491z M500.781,277.479c-28.071,0-50.81-22.737-50.81-50.818
	c0-28.12,22.738-50.839,50.81-50.839c28.07,0,50.838,22.719,50.838,50.839C551.619,254.742,528.852,277.479,500.781,277.479
	L500.781,277.479z M500.781,519.897c-28.071,0-50.81-22.738-50.81-50.858c0-28.061,22.738-50.838,50.81-50.838
	c28.07,0,50.838,22.777,50.838,50.838C551.619,497.159,528.852,519.897,500.781,519.897L500.781,519.897z M880.14,684.762H118.711
	c-18.513,0-33.543-14.585-33.543-32.554c0-17.988,15.03-32.573,33.543-32.573H880.14c18.543,0,33.543,14.585,33.543,32.573
	C913.683,670.177,898.683,684.762,880.14,684.762L880.14,684.762z M782.322,824.156H220.368c-18.553,0-33.593-13.298-33.593-31.326
	c0-17.969,15.04-30.021,33.593-30.021h561.954c18.542,0,33.522,12.052,33.522,30.021
	C815.845,810.858,800.864,824.156,782.322,824.156L782.322,824.156z"/>
</svg>
