<?xml version="1.0" encoding="utf-8"?>
<!-- Generator: Adobe Illustrator 16.0.0, SVG Export Plug-In . SVG Version: 6.00 Build 0)  -->
<!DOCTYPE svg PUBLIC "-//W3C//DTD SVG 1.1//EN" "http://www.w3.org/Graphics/SVG/1.1/DTD/svg11.dtd">
<svg version="1.1" id="Layer_1" xmlns="http://www.w3.org/2000/svg" xmlns:xlink="http://www.w3.org/1999/xlink" x="0px" y="0px"
	 width="1000px" height="1000px" viewBox="0 0 1000 1000" enable-background="new 0 0 1000 1000" xml:space="preserve">
<path fill="#060606" d="M729.479,702.436c-16.663,0-48.754,0-88.339,0c-5.275-17.751-14.444-41.93-25.455-62.779
	c51.015,0.188,93.551,0.314,113.794,0.314c67.95,0,121.707-52.564,121.707-120.514c0-67.961-53.757-123.016-121.707-123.016
	c-9.378,0-18.505,1.131-27.256,3.15c2.868-13.313,4.522-27.057,4.522-41.229c0-106.258-86.162-195.109-192.483-195.109
	c-100.627,0-183.063,79.902-191.582,178.311c-7.536-1.172-15.156-1.926-23.069-1.926c-83.189,0-149.317,67.437-149.317,150.637
	c0,83.211,66.128,149.339,149.317,149.339c22.357,0,70.42,0.188,126.94,0.356c-11.199,21.143-20.535,44.483-25.895,62.465
	c-44.902,0-81.976,0-101.046,0c-116.369,0-209.46-95.729-209.46-212.16c0-106.404,77.601-194.168,180.049-208.528
	C304.929,180.241,400.992,104.42,514.263,104.42c135.021,0,245.654,106.363,257,238.422
	c80.154,18.913,138.495,90.726,138.495,176.615C909.758,619.791,829.813,702.436,729.479,702.436L729.479,702.436z M570.553,747.233
	c0,0.042-0.042,0.104-0.042,0.188h-99.454c0-0.084-0.042-0.146-0.042-0.23c-7.851-0.983-13.921-7.62-13.921-15.763
	c0-3.119,0.942-5.987,2.491-8.437c-0.063-0.042-0.104-0.125-0.146-0.188l47.288-85.785c0.063,0,0.104,0,0.104,0
	c2.68-4.981,7.913-8.436,13.984-8.436c6.196,0,11.471,3.537,14.108,8.666c0.042,0,0.084,0,0.146,0l46.766,84.99
	c0.104,0.188,0.251,0.335,0.335,0.522l0.23,0.335c0,0.042,0,0.042,0,0.042c1.465,2.449,2.365,5.233,2.365,8.29
	C584.767,739.655,578.55,746.333,570.553,747.233L570.553,747.233z M355.441,895.944c0,0.104-0.063,0.146-0.063,0.23H237.921
	c0-0.084-0.042-0.126-0.042-0.23c-9.273-1.172-16.433-9.022-16.433-18.631c0-3.663,1.089-7.055,2.868-9.922
	c-0.042-0.105-0.084-0.188-0.126-0.252l55.893-101.317c0,0,0.063,0,0.104,0c3.202-5.924,9.357-9.985,16.517-9.985
	c7.284,0,13.544,4.145,16.663,10.216c0.083,0,0.125,0,0.188,0l55.243,100.438c0.146,0.188,0.293,0.377,0.376,0.565l0.294,0.418
	c0,0.042,0,0.042,0,0.104c1.737,2.806,2.805,6.155,2.805,9.734C372.271,887.048,364.903,894.961,355.441,895.944L355.441,895.944z
	 M807.038,896.426c0,0.084-0.042,0.126-0.042,0.23H689.141c-0.042-0.104-0.042-0.146-0.084-0.23
	c-9.273-1.235-16.475-9.085-16.475-18.693c0-3.663,1.089-7.097,2.91-9.965c-0.042-0.104-0.084-0.188-0.146-0.251l56.06-101.694
	c0.042,0,0.104,0,0.104,0c3.182-5.924,9.399-9.985,16.601-9.985c7.284,0,13.564,4.208,16.705,10.278c0.104,0,0.146,0,0.188,0
	l55.39,100.753c0.146,0.188,0.293,0.377,0.439,0.564l0.272,0.419v0.042c1.737,2.889,2.825,6.217,2.825,9.839
	C823.931,887.487,816.5,895.442,807.038,896.426L807.038,896.426z"/>
</svg>
