<?xml version="1.0" encoding="utf-8"?>
<!-- Generator: Adobe Illustrator 16.0.0, SVG Export Plug-In . SVG Version: 6.00 Build 0)  -->
<!DOCTYPE svg PUBLIC "-//W3C//DTD SVG 1.1//EN" "http://www.w3.org/Graphics/SVG/1.1/DTD/svg11.dtd">
<svg version="1.1" id="Layer_1" xmlns="http://www.w3.org/2000/svg" xmlns:xlink="http://www.w3.org/1999/xlink" x="0px" y="0px"
	 width="1000px" height="1000px" viewBox="0 0 1000 1000" enable-background="new 0 0 1000 1000" xml:space="preserve">
<path fill="#060606" d="M722.66,754.615c-13.913,0-35.771,0-66.97,0c0.06-1.297,0.199-2.555,0.199-3.853
	c0-18.623-3.772-38.405-10.559-54.573c35.91,0.14,61.899,0.239,77.329,0.239c65.014,0,97.291-51.659,97.291-116.693
	c0-65.014-52.737-117.69-117.711-117.69c-9.022,0-17.726,1.117-26.109,2.994c2.774-12.695,4.291-25.89,4.291-39.403
	c0-101.723-82.419-184.162-184.121-184.162c-96.303,0-175.189,73.916-183.363,168.053c-7.227-1.117-14.492-1.876-22.027-1.876
	c-79.615,0-144.189,64.574-144.189,144.18c0,79.604,64.574,144.18,144.189,144.18c15.879,0,22.846-0.979,59.095-0.839
	c-7.046,16.408-10.988,36.609-10.988,55.592c0,1.298,0.13,2.556,0.18,3.853c-31.149,0-33.885,0-48.286,0
	c-111.384,0-201.718-91.362-201.718-202.785c0-101.822,75.483-185.779,173.532-199.512
	c33.256-97.151,125.157-169.231,233.576-169.231c129.169,0,235.003,101.323,245.921,227.657
	c76.691,18.085,133.82,86.791,133.82,168.991C876.042,675.729,818.653,754.615,722.66,754.615L722.66,754.615z M496.93,825.657
	c-12.157,0-21.987-9.86-21.987-21.978V655.309c0-12.156,9.83-21.978,21.987-21.978c12.166,0,21.986,9.821,21.986,21.978V803.68
	C518.916,815.797,509.096,825.657,496.93,825.657L496.93,825.657z M580.217,777.551c-6.088,10.56-19.521,14.133-30.062,8.044
	l-128.43-74.136c-10.55-6.107-14.143-19.521-8.084-30.081c6.058-10.5,19.521-14.072,30.071-8.024l128.42,74.176
	C582.692,753.598,586.266,767.051,580.217,777.551L580.217,777.551z M572.133,711.459l-128.47,74.136
	c-10.5,6.089-23.964,2.516-30.021-8.044c-6.059-10.5-2.466-23.953,8.084-30.021l128.43-74.176
	c10.54-6.048,23.974-2.476,30.062,8.024C586.266,691.938,582.692,705.352,572.133,711.459L572.133,711.459z M878.856,474.859
	c-9.682-16.508-21.678-31.538-35.571-44.692c8.983-18.524,14.173-39.264,14.173-61.241c0-77.649-62.958-140.606-140.646-140.606
	c-9.741,0-19.282,1.038-28.484,2.914c-15.351-14.812-32.277-27.945-50.562-38.944c24.173-10.818,50.86-17.007,79.046-17.007
	c106.992,0,193.703,86.691,193.703,193.644C910.515,408.05,898.798,444.398,878.856,474.859L878.856,474.859z"/>
</svg>
