<?xml version="1.0" encoding="utf-8"?>
<!-- Generator: Adobe Illustrator 16.0.0, SVG Export Plug-In . SVG Version: 6.00 Build 0)  -->
<!DOCTYPE svg PUBLIC "-//W3C//DTD SVG 1.1//EN" "http://www.w3.org/Graphics/SVG/1.1/DTD/svg11.dtd">
<svg version="1.1" id="Layer_1" xmlns="http://www.w3.org/2000/svg" xmlns:xlink="http://www.w3.org/1999/xlink" x="0px" y="0px"
	 width="1000px" height="1000px" viewBox="0 0 1000 1000" enable-background="new 0 0 1000 1000" xml:space="preserve">
<path fill-rule="evenodd" clip-rule="evenodd" fill="#020101" d="M754.148,500.891c-32.731,0-59.195-26.518-59.195-59.195
	c0-32.565,26.464-59.083,59.195-59.083c32.565,0,59.084,26.518,59.084,59.083C813.232,474.373,786.714,500.891,754.148,500.891
	L754.148,500.891z M583.5,326.801c-32.733,0-59.252-26.352-59.252-59.027c0-32.565,26.519-59.083,59.252-59.083
	c32.565,0,59.027,26.518,59.027,59.083C642.527,300.449,616.065,326.801,583.5,326.801L583.5,326.801z M325.75,274.432
	c-48.1,0-87.045-38.947-87.045-87.045c0-47.988,38.945-87.045,87.045-87.045c47.988,0,86.876,39.057,86.876,87.045
	C412.627,235.485,373.739,274.432,325.75,274.432L325.75,274.432z M698.338,610.292c0,159.888-133.646,289.262-298.582,289.262
	c-52.536,0-186.958,3.217-207.984-71.512c-0.557-203.714-6.325-258.748-3.385-436.665c49.764-40.72,139.859-70.345,211.369-70.345
	C564.692,321.032,698.338,450.573,698.338,610.292L698.338,610.292z M298.343,748.266c30.68,26.352,70.623,37.003,114.174,37.003
	c96.918,0,175.697-78.612,175.697-175.697c0-96.975-78.778-175.586-175.697-175.586c-43.384,0-84.991,13.757-113.839,41.885
	C298.233,575.785,298.678,661.831,298.343,748.266L298.343,748.266z"/>
</svg>
