<?xml version="1.0" encoding="utf-8"?>
<!-- Generator: Adobe Illustrator 16.0.0, SVG Export Plug-In . SVG Version: 6.00 Build 0)  -->
<!DOCTYPE svg PUBLIC "-//W3C//DTD SVG 1.1//EN" "http://www.w3.org/Graphics/SVG/1.1/DTD/svg11.dtd">
<svg version="1.1" id="Layer_1" xmlns="http://www.w3.org/2000/svg" xmlns:xlink="http://www.w3.org/1999/xlink" x="0px" y="0px"
	 width="1000px" height="1000px" viewBox="0 0 1000 1000" enable-background="new 0 0 1000 1000" xml:space="preserve">
<path fill="#060606" d="M896.933,429.265c-10.177-17.299-22.735-32.975-37.273-46.755c9.419-19.427,14.834-41.076,14.834-64.096
	c0-81.288-65.887-147.122-147.176-147.122c-10.198,0-20.186,1.043-29.794,3.023c-16.055-15.487-33.775-29.225-52.97-40.729
	c25.305-11.378,53.244-17.815,82.764-17.815c111.967,0,202.695,90.707,202.695,202.643
	C930.013,359.344,917.792,397.375,896.933,429.265L896.933,429.265z M711.451,723.658c-16.118,0-46.713,0-84.429,0l48.651-62.326
	c15.023,0.043,27.392,0.043,35.777,0.043c68.057,0,123.198-55.162,123.198-123.219c0-68.015-55.142-123.156-123.198-123.156
	c-9.376,0-18.521,1.139-27.286,3.129c2.887-13.316,4.488-27.096,4.488-41.266c0-106.437-86.304-194.541-192.688-194.541
	c-100.8,0-183.374,79.16-191.886,177.685c-7.586-1.138-15.213-1.948-23.114-1.948c-83.333,0-150.884,67.551-150.884,150.915
	c0,83.333,67.551,150.884,150.884,150.884c9.271,0,23.198,0.042,40.117,0.084l-19.574,61.904c-7.332,0-13.695,0-18.752,0
	c-116.582,0-212.915-96.291-212.915-212.872c0-106.573,79.056-194.437,181.646-208.848
	c34.829-101.696,130.973-176.685,244.478-176.685c135.187,0,245.932,105.636,257.352,237.894
	c80.236,18.899,140.033,90.802,140.033,176.821C893.351,638.619,811.914,723.658,711.451,723.658L711.451,723.658z M608.418,659.604
	l-186.83,225.873l49.263-162.494l-101.306-0.547l75.832-213.463H594.87l-87.21,150.631H608.418L608.418,659.604z"/>
</svg>
