<?xml version="1.0" encoding="utf-8"?>
<!-- Generator: Adobe Illustrator 16.0.0, SVG Export Plug-In . SVG Version: 6.00 Build 0)  -->
<!DOCTYPE svg PUBLIC "-//W3C//DTD SVG 1.1//EN" "http://www.w3.org/Graphics/SVG/1.1/DTD/svg11.dtd">
<svg version="1.1" id="Layer_1" xmlns="http://www.w3.org/2000/svg" xmlns:xlink="http://www.w3.org/1999/xlink" x="0px" y="0px"
	 width="1000px" height="1000px" viewBox="0 0 1000 1000" enable-background="new 0 0 1000 1000" xml:space="preserve">
<path fill-rule="evenodd" clip-rule="evenodd" fill="#040404" d="M499.465,907.98c-224.994,0-407.432-182.439-407.432-407.504
	c0-224.994,182.438-407.457,407.432-407.457c225.064,0,407.504,182.463,407.504,407.457
	C906.969,725.541,724.529,907.98,499.465,907.98L499.465,907.98z M503.516,196.902c-169.916,0-307.623,137.707-307.623,307.6
	c0,169.824,137.707,307.602,307.623,307.602c169.893,0,307.576-137.777,307.576-307.602
	C811.092,334.609,673.408,196.902,503.516,196.902L503.516,196.902z M451.574,584.393v-95.877V260.807h107.838v227.709h143.77
	v95.877h-143.77H451.574L451.574,584.393z"/>
</svg>
