<?xml version="1.0" encoding="utf-8"?>
<!-- Generator: Adobe Illustrator 16.0.0, SVG Export Plug-In . SVG Version: 6.00 Build 0)  -->
<!DOCTYPE svg PUBLIC "-//W3C//DTD SVG 1.1//EN" "http://www.w3.org/Graphics/SVG/1.1/DTD/svg11.dtd">
<svg version="1.1" id="Layer_1" xmlns="http://www.w3.org/2000/svg" xmlns:xlink="http://www.w3.org/1999/xlink" x="0px" y="0px"
	 width="1000px" height="1000px" viewBox="0 0 1000 1000" enable-background="new 0 0 1000 1000" xml:space="preserve">
<path fill="#060606" d="M883.801,229.989H116.156c-22.924,0-41.428-13.603-41.428-36.008c0-22.358,18.504-35.961,41.428-35.961
	h767.645c22.877,0,41.45,13.603,41.45,35.961C925.251,216.387,906.678,229.989,883.801,229.989L883.801,229.989z M764.744,394.73
	H163.406c-22.877,0-41.45-12.727-41.45-35.074c0-22.405,18.573-36.951,41.45-36.951h601.338c22.923,0,41.45,14.546,41.45,36.951
	C806.194,382.004,787.667,394.73,764.744,394.73L764.744,394.73z M836.413,537.436H399.334c-22.9,0-41.428-14.591-41.428-36.938
	c0-22.405,18.527-36.019,41.428-36.019h437.079c22.923,0,41.496,13.613,41.496,36.019
	C877.909,522.845,859.336,537.436,836.413,537.436L836.413,537.436z M764.33,701.879H493.833c-22.877,0-41.45-13.671-41.45-36.019
	c0-22.417,18.573-36.939,41.45-36.939H764.33c22.923,0,41.496,14.522,41.496,36.939C805.826,688.208,787.253,701.879,764.33,701.879
	L764.33,701.879z M554.823,842.961H421.589c-22.854,0-41.45-12.728-41.45-35.121c0-22.416,18.597-36.893,41.45-36.893h133.234
	c22.877,0,41.45,14.477,41.45,36.893C596.273,830.233,577.7,842.961,554.823,842.961L554.823,842.961z"/>
</svg>
