<?xml version="1.0" encoding="utf-8"?>
<!-- Generator: Adobe Illustrator 16.0.0, SVG Export Plug-In . SVG Version: 6.00 Build 0)  -->
<!DOCTYPE svg PUBLIC "-//W3C//DTD SVG 1.1//EN" "http://www.w3.org/Graphics/SVG/1.1/DTD/svg11.dtd">
<svg version="1.1" id="Layer_1" xmlns="http://www.w3.org/2000/svg" xmlns:xlink="http://www.w3.org/1999/xlink" x="0px" y="0px"
	 width="1000px" height="1000px" viewBox="0 0 1000 1000" enable-background="new 0 0 1000 1000" xml:space="preserve">
<path fill-rule="evenodd" clip-rule="evenodd" fill="#181212" d="M501.112,809.081c-31.365,0-61.25-5.151-90.202-12.333
	l35.959-74.905c19.55,4.065,39.659,6.285,60.318,6.285c163.633,0,296.273-132.665,296.273-296.266
	c0-163.643-132.641-296.274-296.273-296.274c-163.813,0-296.452,132.631-296.452,296.274c0,56.245,16.432,108.246,43.539,152.903
	l-54.035,69.755c-44.284-61.089-71.042-135.791-71.042-217.144c0-205.326,166.403-371.891,371.915-371.891
	c205.326,0,371.705,166.565,371.705,371.891C872.817,642.702,706.438,809.081,501.112,809.081L501.112,809.081z M382.848,561.165
	c-32.265-30.995-52.551-74.54-52.551-122.856c0-94.092,76.175-170.267,170.258-170.267c93.911,0,170.266,76.175,170.266,170.267
	c0,94.082-76.354,170.283-170.266,170.283c-23.066,0-45.02-4.617-65.131-12.942c-12.357,12.18-145.346,149.599-129.125,335.026
	c-33.948,8.512-77.099,3.862-133.563,0C172.736,825.895,287.121,622.042,382.848,561.165L382.848,561.165z"/>
</svg>
