<?xml version="1.0" encoding="utf-8"?>
<!-- Generator: Adobe Illustrator 16.0.0, SVG Export Plug-In . SVG Version: 6.00 Build 0)  -->
<!DOCTYPE svg PUBLIC "-//W3C//DTD SVG 1.1//EN" "http://www.w3.org/Graphics/SVG/1.1/DTD/svg11.dtd">
<svg version="1.1" id="Layer_1" xmlns="http://www.w3.org/2000/svg" xmlns:xlink="http://www.w3.org/1999/xlink" x="0px" y="0px"
	 width="1000px" height="1000px" viewBox="0 0 1000 1000" enable-background="new 0 0 1000 1000" xml:space="preserve">
<path fill="#060606" d="M628.119,651.844c16.934-15.766,28.67-36.934,32.514-60.793c29.414-17.563,49.178-49.602,49.178-86.35
	c0-55.543-44.994-100.589-100.539-100.589c-7.689,0-15.105,0.966-22.303,2.558c2.387-10.855,3.691-22.083,3.691-33.648
	c0-86.924-70.396-157.354-157.269-157.354c-82.284,0-149.665,63.165-156.677,143.604c-6.13-0.948-12.361-1.592-18.797-1.592
	c-68.042,0-123.163,55.121-123.163,123.146c0,68.042,55.121,123.164,123.163,123.164c3.421,0,7.654,0,12.48,0.033
	c-4.183,7.4-6.739,15.766-6.739,24.826c0,8.84,2.489,17.053,6.485,24.334c-4.725,0-8.84,0-12.227,0
	c-95.171,0-172.357-77.17-172.357-172.357c0-86.992,64.537-158.709,148.294-170.427C262.252,227.352,340.76,167.59,433.391,167.59
	c110.328,0,200.74,84.773,210.037,192.713c65.52,15.461,114.324,74.155,114.324,144.398
	C757.752,580.314,701.174,642.564,628.119,651.844L628.119,651.844z M538.604,653.369c-1.168,0-2.354-0.119-3.488-0.152
	c-0.609,0.033-1.186,0.152-1.795,0.152H254.717c-13.971,0-25.283-11.008-25.283-24.521c0-13.547,11.313-27.756,25.283-27.756
	l193.355,0.203h90.531c16.918,0,33.514-12.311,33.514-29.211s-16.596-28.467-33.514-28.467c-4.453,0-8.637,0.982-12.395,2.691
	c-1.033,0.611-2.033,1.221-3.168,1.678c-0.305,0.186-0.609,0.338-0.914,0.541c-0.033-0.084-0.068-0.117-0.119-0.203
	c-2.658,0.965-5.436,1.576-8.365,1.576c-13.513,0-24.453-10.939-24.453-24.453c0-11.297,7.772-20.779,18.238-23.523
	c9.602-4.233,20.033-6.621,31.176-6.773c54.445-0.729,81.98,35.392,81.98,79.101C620.584,617.959,582.313,653.369,538.604,653.369
	L538.604,653.369z M837.613,653.859c-1.066,0-2.133-0.102-3.184-0.152c-0.541,0.051-1.084,0.152-1.643,0.152h-66.553
	c-12.75,0-23.115-12.209-23.115-24.588s10.365-24.59,23.115-24.59l1.863,0.525h69.516c15.494,0,32.361-8.213,32.361-23.674
	s-16.867-27.992-32.361-27.992c-4.064,0-7.875,0.881-11.346,2.438c-0.914,0.576-1.863,1.152-2.846,1.525
	c-0.305,0.186-0.609,0.305-0.881,0.49c-0.033-0.033-0.066-0.102-0.117-0.186c-2.389,0.914-4.945,1.455-7.604,1.455
	c-12.346,0-22.354-10.025-22.354-22.354c0-10.363,7.078-19,16.68-21.506c8.756-3.844,18.307-7.281,28.467-7.281
	c39.947,0,77.746,20.457,76.678,73.41C913.463,621.465,877.561,653.859,837.613,653.859L837.613,653.859z M675.213,832.754
	c-10.16,0-19.729-2.354-28.482-6.199c-9.586-2.506-16.664-11.158-16.664-21.506c0-12.379,10.008-22.354,22.336-22.354
	c2.658,0,5.217,0.525,7.654,1.406c0-0.035,0.035-0.119,0.086-0.152c0.287,0.152,0.559,0.305,0.863,0.457
	c1.033,0.424,1.947,0.998,2.895,1.559c3.422,1.574,7.283,2.438,11.313,2.438c15.496,0,28.061-9.279,28.061-24.74
	s-12.564-24.742-28.061-24.742h-98.607l-292.542,0.525c-1.862,0-3.606-0.271-5.317-0.678c-37.476-2.709-67.043-43.674-67.043-81.826
	c0-14.377,4.251-27.789,11.532-39.051c13.209,7.57,26.909,14.039,41.27,19.035c-5.216,5.096-8.501,12.176-8.501,20.016
	c0,15.275,12.227,30.889,27.416,31.227c0.237,0,0.424-0.084,0.644-0.084h69.905l1.439-0.373c1.372,0,2.709,0.152,3.996,0.373
	h310.964c0.576,0,1.102,0.119,1.643,0.152c1.102-0.033,2.135-0.152,3.201-0.152c39.965,0,72.377,32.412,72.377,72.344
	C747.59,800.357,715.178,832.754,675.213,832.754L675.213,832.754z"/>
</svg>
