<?xml version="1.0" encoding="utf-8"?>
<!-- Generator: Adobe Illustrator 16.0.0, SVG Export Plug-In . SVG Version: 6.00 Build 0)  -->
<!DOCTYPE svg PUBLIC "-//W3C//DTD SVG 1.1//EN" "http://www.w3.org/Graphics/SVG/1.1/DTD/svg11.dtd">
<svg version="1.1" id="Layer_1" xmlns="http://www.w3.org/2000/svg" xmlns:xlink="http://www.w3.org/1999/xlink" x="0px" y="0px"
	 width="1000px" height="1000px" viewBox="0 0 1000 1000" enable-background="new 0 0 1000 1000" xml:space="preserve">
<path fill="#040000" d="M167.646,907.335L81.319,448.021l211.056,2.218l3.251,460.891L167.646,907.335L167.646,907.335z
	 M861.648,584.635c0,0,41.021,21.864,37.368,53.053c-3.606,31.199-60.467,56.374-60.467,56.374s41.712,25.126,36.183,54.439
	c-5.481,29.468-52.019,52.019-52.019,52.019s23.098,34.309,15.338,54.986c-11.045,29.266-26.549,54.783-98.059,54.783
	c-71.477,0-263.077,0.984-263.077,0.984l-131.289-52.02c0,0,0.143-267.074,1.875-383.699
	c5.527-36.717,138.893-136.615,148.015-208.138c9.289-71.521-12.231-113.718-4.982-137.504c7.402-23.939,26.157-42.007,53.75-40.275
	c27.546,1.875,81.632,73.396,98.167,174.173c16.396,100.944-19.585,190.914-19.585,190.914s197.081-2.954,232.076,0.7
	c34.795,3.749,62.377,54.783,64.25,78.57C920.928,557.934,861.648,584.635,861.648,584.635L861.648,584.635z"/>
</svg>
