<?xml version="1.0" encoding="utf-8"?>
<!-- Generator: Adobe Illustrator 16.0.0, SVG Export Plug-In . SVG Version: 6.00 Build 0)  -->
<!DOCTYPE svg PUBLIC "-//W3C//DTD SVG 1.1//EN" "http://www.w3.org/Graphics/SVG/1.1/DTD/svg11.dtd">
<svg version="1.1" id="Layer_1" xmlns="http://www.w3.org/2000/svg" xmlns:xlink="http://www.w3.org/1999/xlink" x="0px" y="0px"
	 width="1000px" height="1000px" viewBox="0 0 1000 1000" enable-background="new 0 0 1000 1000" xml:space="preserve">
<path fill="#070404" d="M499.591,67.359c-238.011,0-431.203,193.19-431.203,431.22c0,238.036,193.191,430.94,431.203,430.94
	c238,0,430.938-192.904,430.938-430.94C930.529,260.55,737.591,67.359,499.591,67.359z M254.348,732.327l-64.437-334.283
	l157.741,1.777l2.522,335.438L254.348,732.327z M773.689,490.676c0,0,30.86,16.458,27.952,39.907
	c-2.714,23.208-45.07,42.165-45.07,42.165s31.124,18.69,26.991,40.771c-3.998,21.851-38.993,38.778-38.993,38.778
	s17.432,25.694,11.484,41.252c-8.266,21.862-19.749,40.999-73.471,40.999c-53.408,0-196.747,0.71-196.747,0.71l-98.278-38.802
	c0,0,0.193-199.908,1.623-287.144c4-27.499,79.993-102.338,86.782-155.772c6.966-53.625-9.3-85.195-3.629-103.015
	c5.43-17.792,43.271-31.546,63.993-30.189c20.53,1.357,61.085,54.983,73.483,130.525c12.204,75.484-14.92,142.667-14.92,142.667
	s147.674-2.032,173.826,0.684c26.152,2.704,46.681,40.772,48.04,58.815C818.04,470.854,773.689,490.676,773.689,490.676z"/>
</svg>
