<?xml version="1.0" encoding="utf-8"?>
<!-- Generator: Adobe Illustrator 16.0.0, SVG Export Plug-In . SVG Version: 6.00 Build 0)  -->
<!DOCTYPE svg PUBLIC "-//W3C//DTD SVG 1.1//EN" "http://www.w3.org/Graphics/SVG/1.1/DTD/svg11.dtd">
<svg version="1.1" id="Layer_1" xmlns="http://www.w3.org/2000/svg" xmlns:xlink="http://www.w3.org/1999/xlink" x="0px" y="0px"
	 width="1000px" height="1000px" viewBox="0 0 1000 1000" enable-background="new 0 0 1000 1000" xml:space="preserve">
<g>
	<path fill="#050404" d="M906.723,628.784c0.367-2.147,0.855-4.21,1.115-6.426C907.586,623.115,907.035,626.69,906.723,628.784z"/>
	<path fill="#050404" d="M906.723,628.784c-0.039,0.236-0.084,0.466-0.123,0.702c-0.015,0.131-0.022,0.26-0.029,0.313
		C906.607,629.556,906.669,629.143,906.723,628.784z"/>
	<path fill="#050404" d="M781.363,364.994c-5.775-0.52-17.213-1.696-73.261-2.33c-0.146-19.146-1.811-37.926-4.79-55.674
		C686.336,203.719,624.619,96.169,538.592,87.047c-2.354-0.122-14.043-0.779-14.043-0.779c-62.496,0-115.365,40.126-134.786,101.996
		l0.244-0.512c-3.958,12.469-6.066,25.992-6.066,39.882c0,14.279,2.109,27.145,3.866,38.437c1.711,10.696,3.231,20.72,3.231,31.798
		c0,3.438-0.145,6.792-0.39,10.268c-6.41,10.681-25.976,30.37-36.779,41.425c-3.866,3.988-7.823,7.968-11.59,11.834
		c-1.521-0.146-2.941-0.146-4.5-0.146l-156.408-0.122c-29.689,0-57.851,13.126-76.875,35.871
		c-15.311,18.145-23.432,40.913-23.432,64.307c0,5.806,0.542,11.72,1.566,17.511l62.504,351.644
		c8.458,47.827,50.173,82.704,98.794,82.704l93.209-0.145c24.311,0,46.559-8.756,63.925-23.135
		c16.098,6.938,33.701,14.646,33.701,14.646c12.469,5.4,25.869,8.243,39.469,8.365l206.726,0.779
		c37.658,0,136.697,0.123,174.791-91.818c0.106-0.397,9.244-44.512,9.244-44.512c0-2.59-0.145-5.279-0.244-7.869
		c13.354-15.678,22.256-34.189,26.113-54.779c0.734-3.592,0.489-0.779,0.734-4.5l1.328-16.725c0-7.579-0.786-15.066-2.199-22.248
		c7.724-12.171,13.103-26.106,15.875-41.738c0.253-2.604,2.018-20.65,2.018-20.65c0-10.78-1.414-21.347-4.248-31.371
		c7.426-13.5,11.969-28.023,13.391-43.724c0-0.787,0.24-2.2,0.24-3.736v-0.122c0-0.787,0.004-1.543,0.004-2.322
		c0-0.467-0.029-0.765,0.001-1.039c0.047-0.237,0.047-0.52,0.047-0.749c0,0.092-0.049,0.198-0.064,0.306
		c0.016-0.146,0.013-0.26,0.013-0.459c0-0.244,0-0.504,0-0.626c0-0.909,0.096-2.444,0.096-2.444
		C918.096,454.758,861.913,373.353,781.363,364.994z M337.046,812.826l-93.271,0.123l-62.496-351.644l156.4,0.153L337.046,812.826z
		 M817.799,524.748c-1.657,18.627-66.507,42.693-66.507,42.693s59.96,18.779,56.973,43.213
		c-2.835,24.418-68.661,42.692-68.661,42.692s57.216,19.681,52.861,42.693c-4.348,23.034-59.027,31.4-59.027,31.4
		s36.771,37.804,30.713,53.87c-8.61,23.035-26.992,32.181-83.193,32.181c-56.094,0-206.191-0.787-206.191-0.787l-86.417-37.681
		c0,0-1.956-215.559-0.542-307.133c4.4-28.681,94.447-85.813,101.629-141.876c7.196-56.201-9.78-89.137-4.004-107.917
		c5.822-18.634,20.491-32.921,42.104-31.5c21.568,1.421,64.017,57.492,77.028,136.605c12.865,79.075-15.457,139.279-15.457,139.279
		s154.598-0.634,181.988,2.186C798.386,467.494,819.457,505.962,817.799,524.748z"/>
</g>
</svg>
