<?xml version="1.0" encoding="utf-8"?>
<!-- Generator: Adobe Illustrator 16.0.0, SVG Export Plug-In . SVG Version: 6.00 Build 0)  -->
<!DOCTYPE svg PUBLIC "-//W3C//DTD SVG 1.1//EN" "http://www.w3.org/Graphics/SVG/1.1/DTD/svg11.dtd">
<svg version="1.1" id="Layer_1" xmlns="http://www.w3.org/2000/svg" xmlns:xlink="http://www.w3.org/1999/xlink" x="0px" y="0px"
	 width="1000px" height="1000px" viewBox="0 0 1000 1000" enable-background="new 0 0 1000 1000" xml:space="preserve">
<path fill-rule="evenodd" clip-rule="evenodd" fill="#070505" d="M909.137,811.454c-13.606,155.005-113.854,75.055-113.854,75.055
	L605.51,736.854c-50.212,28.236-107.139,45.655-168.792,45.655c-191.941,0-347.45-155.652-347.45-347.446
	c0-191.951,155.509-347.455,347.45-347.455c191.947,0,347.478,155.503,347.478,347.455c0,76.603-25.534,146.935-67.517,204.368
	L909.137,811.454L909.137,811.454z M436.718,189.553c-135.671,0-245.511,109.831-245.511,245.511
	c0,135.575,109.84,245.521,245.511,245.521c135.527,0,245.551-109.945,245.551-245.521
	C682.269,299.384,572.245,189.553,436.718,189.553L436.718,189.553z M294.31,394.769h307.492v102.582H294.31V394.769L294.31,394.769
	z"/>
</svg>
